<?xml version="1.0" encoding="UTF-8"?>
<svg version="1.1" xmlns="http://www.w3.org/2000/svg" width="500" height="500">
<path d="M0 0 C165 0 330 0 500 0 C500 165 500 330 500 500 C335 500 170 500 0 500 C0 335 0 170 0 0 Z " fill="#FDFDFD" transform="translate(0,0)"/>
<path d="M0 0 C165 0 330 0 500 0 C500 165 500 330 500 500 C335 500 170 500 0 500 C0 335 0 170 0 0 Z M172.63354492 37.41870117 C145.91713577 47.32637897 145.91713577 47.32637897 131.609375 47.62890625 C129.0180935 47.81672787 129.0180935 47.81672787 127.18359375 49.140625 C125.49736757 51.78961399 125.53161634 54.06599013 125.3125 57.1875 C123.8871524 68.55494157 118.66951444 79.78504473 109.99609375 87.4609375 C101.09533195 94.32375579 92.6261129 97.01135781 81.50390625 98.375 C78.65555209 98.78764877 78.65555209 98.78764877 77 102 C75.22780817 110.54331245 75.67009499 119.71206785 75.453125 128.4140625 C75.42208553 129.60755247 75.42208553 129.60755247 75.39041901 130.82515335 C74.91204274 149.48818352 74.77860239 168.15079613 74.75976562 186.81933594 C74.75537532 190.51963117 74.74140728 194.21969401 74.71875 197.91992188 C74.6005852 217.68224915 74.81347716 237.33139548 76.34375 257.04296875 C76.40329613 257.82152096 76.46284225 258.60007317 76.52419281 259.40221786 C80.60949421 311.41080672 93.97750973 364.18450525 132 402 C132.87011719 402.87011719 133.74023438 403.74023438 134.63671875 404.63671875 C146.49665965 415.92936801 160.43548151 423.96528194 174.58691406 432.02563477 C187.55449457 439.4167099 200.27929065 447.19363545 213 455 C214.01626465 455.62245605 215.0325293 456.24491211 216.07958984 456.88623047 C218.88858957 458.60811689 221.69520121 460.33378017 224.5 462.0625 C225.35118408 462.58690674 226.20236816 463.11131348 227.0793457 463.65161133 C232.73102728 467.15584524 238.23128363 470.81424488 243.625 474.70703125 C246.48366997 476.26331375 247.7916909 476.56702744 251 476 C253.26183174 474.70496705 255.27416733 473.39398795 257.375 471.875 C263.84224342 467.38578943 270.45108501 463.19880702 277.1875 459.125 C278.17419678 458.52800293 279.16089355 457.93100586 280.17749023 457.31591797 C283.11665516 455.54115601 286.05825281 453.77047737 289 452 C290.6928452 450.97678891 292.38556023 449.95336241 294.078125 448.9296875 C304.16411666 442.8424095 314.31362771 436.87044011 324.51733398 430.98242188 C363.63357863 408.31562436 389.84005686 379.08278999 405.12890625 336.41992188 C405.87796368 334.33902018 406.65189488 332.27038875 407.4375 330.203125 C411.68436881 318.47114991 413.78921749 306.24769538 416 294 C416.15742676 293.13793945 416.31485352 292.27587891 416.47705078 291.38769531 C422.18710168 259.59938488 422.18412103 227.20687601 422.12877274 195.01554108 C422.1249575 192.59806772 422.12292148 190.18059832 422.12130737 187.76312256 C422.10615959 168.54754445 422.02964835 149.33585535 421.5625 130.125 C421.5429425 129.29462219 421.52338501 128.46424438 421.50323486 127.60870361 C421.33105878 120.60752495 421.10638293 113.60643227 420.65234375 106.6171875 C420.59941162 105.78558105 420.54647949 104.95397461 420.49194336 104.09716797 C419.88829509 101.52379893 419.09169048 100.58675726 417 99 C413.69315622 98.16088019 413.69315622 98.16088019 409.9375 97.625 C396.97012638 95.29158738 387.24051985 89.06055779 379.125 78.5625 C374.14214025 70.85051212 372.47517073 63.06607339 371.58984375 54.00390625 C371.19967691 51.06692386 371.19967691 51.06692386 369.8125 49.109375 C367.19816117 47.50921934 365.11674915 47.69839506 362.0625 47.6875 C348.30579625 46.96569764 335.29118576 41.59045032 322.51708984 36.75634766 C268.80017741 16.59174293 226.14639053 17.5321324 172.63354492 37.41870117 Z " fill="#FEFEFE" transform="translate(0,0)"/>
<path d="M0 0 C12.76665591 4.99193096 25.14501045 9.18992702 38.96484375 9.3515625 C41.6875 9.6875 41.6875 9.6875 43.51171875 10.8046875 C45.21661896 13.53479349 45.273038 15.99635799 45.5625 19.1875 C47.20295198 32.2304379 53.41459139 42.74212452 63.51171875 51.08984375 C70.94697621 56.54948522 78.47687309 58.50597757 87.46484375 59.9140625 C90.80955258 60.71679262 91.66136627 61.05492959 93.6875 63.6875 C94.17944336 65.78466797 94.17944336 65.78466797 94.33984375 68.3046875 C94.40413574 69.29436523 94.46842773 70.28404297 94.53466797 71.30371094 C94.84343751 78.14004623 95.08886959 84.97117824 95.25 91.8125 C95.28126984 93.09843048 95.28126984 93.09843048 95.31317139 94.41033936 C95.76024062 113.5679242 95.79764225 132.72840218 95.81043625 151.89022064 C95.81247538 154.28360848 95.81622794 156.67698845 95.82034302 159.07037354 C95.87527818 195.73744302 94.21652436 231.55254656 87.6875 267.6875 C87.53055664 268.55632812 87.37361328 269.42515625 87.21191406 270.3203125 C80.85828164 304.0107052 64.81504714 335.56277029 41.6875 360.6875 C41.00300781 361.44289063 40.31851562 362.19828125 39.61328125 362.9765625 C24.98187155 378.37481757 5.42192778 388.48398128 -12.78125 398.92578125 C-25.95671884 406.4947897 -38.91701561 414.40226244 -51.8125 422.4375 C-52.83674072 423.07429688 -53.86098145 423.71109375 -54.91625977 424.3671875 C-61.06925875 428.21463548 -67.06250116 432.17565254 -72.84765625 436.5625 C-76.45848017 438.21054642 -78.50599734 437.72416456 -82.3125 436.6875 C-85.04393709 435.24876725 -87.49770227 433.48963222 -90 431.6875 C-97.85149437 426.24973066 -105.88863275 421.18248945 -114.0625 416.25 C-114.66349518 415.88684692 -115.26449036 415.52369385 -115.88369751 415.14953613 C-123.79478428 410.3727413 -131.73136678 405.63888424 -139.6875 400.9375 C-140.56494873 400.41897461 -141.44239746 399.90044922 -142.34643555 399.36621094 C-146.91955736 396.66992435 -151.5049957 393.99701867 -156.10546875 391.34765625 C-191.80753054 370.69858284 -216.63846528 342.92733759 -232.3125 304.6875 C-232.6314624 303.93782959 -232.9504248 303.18815918 -233.27905273 302.41577148 C-244.15794762 276.3027705 -247.7491609 246.92724812 -249.9375 218.8984375 C-250.0348859 217.65806166 -250.0348859 217.65806166 -250.1342392 216.39262772 C-251.65131149 196.54322234 -251.69860975 176.7323766 -251.57678223 156.83636475 C-251.55772371 153.13485852 -251.55366929 149.43340202 -251.54993439 145.73185349 C-251.52945531 127.18375726 -251.34160563 108.64367934 -250.859375 90.1015625 C-250.84019264 89.33221752 -250.82101028 88.56287254 -250.80124664 87.77021408 C-250.21923534 65.04760302 -250.21923534 65.04760302 -247.3125 60.6875 C-244.78410334 60.10266059 -242.37247373 59.67121129 -239.8125 59.3125 C-227.17066916 57.1994319 -217.15277999 51.74093872 -209.45703125 41.12890625 C-207.9560719 38.69401663 -206.60501016 36.2381679 -205.3125 33.6875 C-204.735 32.615 -204.1575 31.5425 -203.5625 30.4375 C-201.95457826 25.61373477 -201.45739026 20.84414289 -200.9375 15.796875 C-200.3125 12.6875 -200.3125 12.6875 -199.23046875 10.80859375 C-196.22154718 9.04981475 -193.02563064 9.18331842 -189.625 9 C-175.26979523 7.78139676 -162.00836598 2.26441434 -148.65625 -2.8515625 C-133.72621256 -8.55766615 -118.98016753 -13.10551348 -103.3125 -16.3125 C-102.437146 -16.50537598 -101.56179199 -16.69825195 -100.65991211 -16.89697266 C-65.98308822 -24.03510358 -31.94396201 -12.50231013 0 0 Z M-156.2355957 8.4440918 C-168.12496063 12.68818359 -179.65271912 16.63251826 -192.3125 17.6875 C-192.64121094 19.21117187 -192.64121094 19.21117187 -192.9765625 20.765625 C-196.84105486 37.88129675 -203.69633366 51.31627404 -218.77734375 61.22265625 C-225.93115242 65.35621288 -233.21677091 67.32251101 -241.3125 68.6875 C-242.65236814 82.17187963 -242.49520182 95.68709637 -242.515625 109.22265625 C-242.51845238 110.49857573 -242.52127975 111.7744952 -242.52419281 113.0890789 C-242.53760262 119.16797017 -242.54750985 125.24684278 -242.5513947 131.32574755 C-242.55539293 137.54006914 -242.56754756 143.7542361 -242.59375 149.96850586 C-242.88474087 187.51541162 -242.88474087 187.51541162 -240.984375 224.99609375 C-240.92589638 225.7040465 -240.86741776 226.41199924 -240.80716705 227.14140511 C-239.92019022 237.44524972 -238.19902495 247.53255179 -236.3125 257.6875 C-236.02436802 259.38209069 -235.73911424 261.07718417 -235.4609375 262.7734375 C-230.1647754 293.04558382 -218.28448489 323.12504591 -198.3125 346.6875 C-197.62414062 347.49960937 -196.93578125 348.31171875 -196.2265625 349.1484375 C-181.14982206 366.40232457 -163.36387289 377.50713617 -143.6171875 388.76855469 C-135.40014691 393.45824558 -127.26937116 398.26921834 -119.1875 403.1875 C-118.31958832 403.71543152 -118.31958832 403.71543152 -117.43414307 404.25402832 C-107.82985421 410.10274448 -98.28295306 416.04211813 -88.77294922 422.04296875 C-87.38487061 422.91695313 -87.38487061 422.91695313 -85.96875 423.80859375 C-85.16244141 424.3183374 -84.35613281 424.82808105 -83.52539062 425.35327148 C-82.79513672 425.79356689 -82.06488281 426.2338623 -81.3125 426.6875 C-80.29627563 427.33259521 -80.29627563 427.33259521 -79.25952148 427.99072266 C-77.32608625 428.9150035 -77.32608625 428.9150035 -75.44750977 428.01928711 C-74.48542603 427.37358765 -74.48542603 427.37358765 -73.50390625 426.71484375 C-72.76865723 426.23442627 -72.0334082 425.75400879 -71.27587891 425.2590332 C-70.08744385 424.45018677 -70.08744385 424.45018677 -68.875 423.625 C-67.14524358 422.4911001 -65.41474972 421.35832451 -63.68359375 420.2265625 C-62.79140137 419.63649414 -61.89920898 419.04642578 -60.97998047 418.43847656 C-56.84223962 415.72239772 -52.64620471 413.10433566 -48.4375 410.5 C-47.58623535 409.97212891 -46.7349707 409.44425781 -45.85791016 408.90039062 C-38.22255448 404.19360756 -30.49363142 399.65023515 -22.75 395.125 C-22.12974945 394.76234039 -21.5094989 394.39968079 -20.87045288 394.02603149 C-15.66851043 390.98460984 -10.4658448 387.94442197 -5.26171875 384.90673828 C37.16233929 360.0786891 64.29894899 325.53046892 76.875 277.625 C79.3971901 267.41843569 80.98297922 257.088914 82.4375 246.6875 C82.53864105 245.96956268 82.6397821 245.25162537 82.74398804 244.51193237 C85.7470239 222.85494112 86.99359645 201.30432557 86.91796875 179.44921875 C86.91677063 177.10439581 86.91632512 174.75957238 86.9165802 172.41474915 C86.91503174 167.53989582 86.90687266 162.66511763 86.89331055 157.7902832 C86.87635243 151.62585527 86.87249665 145.4615095 86.87325573 139.29706097 C86.8729802 134.46553299 86.86743813 129.634022 86.86025429 124.80249977 C86.85713229 122.53333476 86.8551159 120.26416787 86.85436058 117.99500084 C86.84288112 101.53998051 86.39479477 85.12717488 85.6875 68.6875 C84.52049561 68.43141464 83.35349121 68.17532928 82.15112305 67.91148376 C66.89483213 64.53726777 54.66916144 57.61997079 45.8125 44.25 C40.75844404 35.69972651 38.10521181 27.49955805 36.6875 17.6875 C35.85992187 17.62433594 35.03234375 17.56117187 34.1796875 17.49609375 C19.17075296 15.95630025 5.35454172 10.70234014 -8.79296875 5.69921875 C-9.53480911 5.43689453 -10.27664948 5.17457031 -11.04096985 4.90429688 C-14.73376471 3.5964834 -18.42359471 2.28115145 -22.10864258 0.95166016 C-33.648047 -3.19423766 -45.27642333 -7.19612115 -57.4375 -9.0625 C-58.62146362 -9.24462036 -58.62146362 -9.24462036 -59.8293457 -9.43041992 C-93.86199759 -14.19264526 -124.70463302 -2.84780632 -156.2355957 8.4440918 Z " fill="#1A3860" transform="translate(326.3125,38.3125)"/>
<path d="M0 0 C9.87554656 0.42023602 18.03037184 3.12764241 26 9 C26.88751953 8.38511719 26.88751953 8.38511719 27.79296875 7.7578125 C28.58316406 7.21898437 29.37335938 6.68015625 30.1875 6.125 C31.35345703 5.32449219 31.35345703 5.32449219 32.54296875 4.5078125 C36.93585699 1.81201781 40.68226301 0.74586051 45.8125 0.375 C46.78832031 0.30023438 47.76414062 0.22546875 48.76953125 0.1484375 C49.50558594 0.09945313 50.24164063 0.05046875 51 0 C51 1.32 51 2.64 51 4 C51.99 4 52.98 4 54 4 C54.12558503 10.92020017 53.7849496 17.68129565 53.0625 24.5625 C52.97548828 25.46291016 52.88847656 26.36332031 52.79882812 27.29101562 C52.12834821 33.87165179 52.12834821 33.87165179 51 35 C49.00176441 35.13381042 47.00106963 35.23143815 45 35.3125 C39.58572672 35.66792275 35.78472039 36.74231151 30.9765625 39.12890625 C27.78122336 40.53712884 25.43184354 40.49026336 22 40 C20.63118478 39.38582335 19.27791517 38.73641039 17.9375 38.0625 C11.93060177 35.1111941 5.58509024 35.18734254 -1 35 C-1.34153092 31.70913156 -1.67166646 28.41720923 -2 25.125 C-2.09539062 24.2071875 -2.19078125 23.289375 -2.2890625 22.34375 C-2.89410312 16.20690947 -3.12065893 10.16533625 -3 4 C-2.01 4 -1.02 4 0 4 C0 2.68 0 1.36 0 0 Z " fill="#2B476B" transform="translate(223,318)"/>
<path d="M0 0 C0.66 0 1.32 0 2 0 C4.10531329 3.42113409 4.32490511 6.01991246 4 10 C3 12.875 3 12.875 2 15 C3.65 16.32 5.3 17.64 7 19 C6.979375 17.88625 6.95875 16.7725 6.9375 15.625 C7 12 7 12 8 10 C11.875 11.75 11.875 11.75 13 14 C12.91783699 15.62626103 12.81036109 17.25130642 12.6875 18.875 C12.56221007 21.54059954 12.56221007 21.54059954 13 24 C15.80996083 26.71036916 15.80996083 26.71036916 19 28 C18.34 27.01 17.68 26.02 17 25 C16.875 21.8125 16.875 21.8125 17 19 C18.32 18.67 19.64 18.34 21 18 C25.12989477 22.26311718 25.61271765 25.28758534 26 31 C34.08023044 34.72165173 39.49472707 36.99001398 48 34 C49.68308287 33.60564827 51.37072048 33.23019477 53.0625 32.875 C54.19365234 32.62363281 54.19365234 32.62363281 55.34765625 32.3671875 C55.89292969 32.24601562 56.43820312 32.12484375 57 32 C56.87625 30.824375 56.7525 29.64875 56.625 28.4375 C56.57459719 23.72483755 58.51333413 21.54172757 61.6875 18.25 C62.120625 17.8375 62.55375 17.425 63 17 C65 19 65 19 65.125 22 C65.08375 22.99 65.0425 23.98 65 25 C65 25.66 65 26.32 65 27 C66.65 26.34 68.3 25.68 70 25 C69.505 23.515 69.505 23.515 69 22 C68.62709966 16.96584543 69.01121727 14.10957626 72 10 C72.99 10.33 73.98 10.66 75 11 C75.59732819 13.76264289 76 16.16032769 76 19 C77.32 17.68 78.64 16.36 80 15 C79.505 13.515 79.505 13.515 79 12 C78.796875 9.84375 78.796875 9.84375 78.75 7.5 C78.72421875 6.7265625 78.6984375 5.953125 78.671875 5.15625 C79.0743078 2.51169162 79.96895849 1.66759198 82 0 C85.875 6.75 85.875 6.75 87 9 C86.67 9.66 86.34 10.32 86 11 C86.556875 10.67 87.11375 10.34 87.6875 10 C90.30284522 8.8690399 92.1806646 8.84337026 95 9 C95 13 95 13 92.875 15.25 C89.5463654 17.27612541 87.825886 17.33268574 84 17 C83.01 17 82.02 17 81 17 C79.29467677 18.94009522 79.29467677 18.94009522 78 21 C78.928125 20.938125 79.85625 20.87625 80.8125 20.8125 C84 21 84 21 85.875 22.5 C86.431875 23.2425 86.431875 23.2425 87 24 C83.14089246 27.62522223 80.30731422 28.80343281 75 29 C74.01 28.34 73.02 27.68 72 27 C68.96547627 27.37931547 67.62438979 28.25040681 65 30 C66.27875 30.268125 67.5575 30.53625 68.875 30.8125 C72.49675855 31.57190099 72.80051868 31.70077803 75 35 C69.910154 37.5968602 66.73758969 38.68752638 61 37 C60.01 35.02 60.01 35.02 59 33 C55.04 34.65 51.08 36.3 47 38 C48.93875 38.61875 50.8775 39.2375 52.875 39.875 C58.75 41.75 58.75 41.75 61 44 C56.89970001 45.74108216 53.74520182 43.96656444 49.875 42.4375 C43.23588618 40.02619182 38.66352451 39.62016982 32 42 C31.13890625 42.27070313 30.2778125 42.54140625 29.390625 42.8203125 C27.24345264 43.50714093 25.1192574 44.23215312 23 45 C22.34 44.34 21.68 43.68 21 43 C22.77065111 42.35366725 24.54152753 41.7079517 26.3125 41.0625 C27.29863281 40.70285156 28.28476563 40.34320313 29.30078125 39.97265625 C31.1920563 39.29114035 33.09284329 38.6357189 35 38 C31.3966537 36.35924687 27.86906939 34.87684292 24 34 C21.12827495 35.63046953 21.12827495 35.63046953 19 38 C14.16608939 38.71994413 11.17952509 37.38830005 7 35 C9.51830747 31.87729874 10.7261549 31.05476902 14.75 30.25 C15.8225 30.1675 16.895 30.085 18 30 C14.85570747 27.62031949 14.85570747 27.62031949 11.125 27.25 C10.42375 27.4975 9.7225 27.745 9 28 C4.43446975 29.09910913 2.73255603 29.41289522 -1.4375 27.0625 C-2.283125 26.381875 -3.12875 25.70125 -4 25 C-3.34 23.68 -2.68 22.36 -2 21 C0.97 21.33 3.94 21.66 7 22 C3.51743665 18.22463346 3.51743665 18.22463346 -1.19140625 16.84375 C-2.33416016 16.92109375 -2.33416016 16.92109375 -3.5 17 C-7.13640613 17.24611886 -8.76748401 16.87873701 -11.5625 14.5 C-12.366875 13.675 -13.17125 12.85 -14 12 C-13.67 11.01 -13.34 10.02 -13 9 C-9.65747276 8.92572162 -7.1964086 8.93453047 -4 10 C-4 9.01 -4 8.02 -4 7 C-2.82851724 4.55766765 -1.40263342 2.32311159 0 0 Z " fill="#A88656" transform="translate(209,359)"/>
<path d="M0 0 C0.38064163 8.79705092 -0.79268308 17.31163005 -2 26 C-2.7734375 26.23074219 -3.546875 26.46148437 -4.34375 26.69921875 C-5.90609375 27.18841797 -5.90609375 27.18841797 -7.5 27.6875 C-8.5209375 28.00074219 -9.541875 28.31398438 -10.59375 28.63671875 C-14.74120446 30.29665179 -18.29193607 32.53251907 -22 35 C-22.17449702 30.77135555 -22.28092495 26.54363749 -22.375 22.3125 C-22.42527344 21.11431641 -22.47554687 19.91613281 -22.52734375 18.68164062 C-22.67120844 10.07373687 -22.67120844 10.07373687 -20.83325195 7.13354492 C-17.84368022 4.51640002 -14.16074585 2.97448256 -10.4375 1.6875 C-9.07431641 1.19830078 -9.07431641 1.19830078 -7.68359375 0.69921875 C-4.99884724 -0.00030036 -2.76012067 -0.13476177 0 0 Z " fill="#FBFCFC" transform="translate(272,320)"/>
<path d="M0 0 C7.21068383 0.53412473 14.35918187 2.08440935 20.11914062 6.69702148 C22.54835685 9.67142396 22.46517565 11.27604181 22.390625 15.078125 C22.37128906 16.81835938 22.37128906 16.81835938 22.3515625 18.59375 C22.31804687 19.8003125 22.28453125 21.006875 22.25 22.25 C22.23195312 23.47203125 22.21390625 24.6940625 22.1953125 25.953125 C22.148181 28.96954078 22.08239413 31.98437491 22 35 C21.49791016 34.66589111 20.99582031 34.33178223 20.47851562 33.98754883 C16.25662443 31.25137736 12.34501583 29.17403895 7.5 27.6875 C6.4584375 27.36136719 5.416875 27.03523438 4.34375 26.69921875 C3.5703125 26.46847656 2.796875 26.23773438 2 26 C0.79268308 17.31163005 -0.38064163 8.79705092 0 0 Z " fill="#FBFCFC" transform="translate(225,320)"/>
<path d="M0 0 C1.32 0 2.64 0 4 0 C4.33865898 3.52034206 4.66996095 7.04134018 5 10.5625 C5.09539062 11.55314453 5.19078125 12.54378906 5.2890625 13.56445312 C5.77008121 18.73540428 6.11653634 23.80684952 6 29 C7.73636719 28.94779297 7.73636719 28.94779297 9.5078125 28.89453125 C11.0468604 28.86637793 12.58592411 28.83907944 14.125 28.8125 C14.88554687 28.78736328 15.64609375 28.76222656 16.4296875 28.73632812 C21.4781861 28.67104582 24.50563132 29.50456144 29 32 C31.26783298 32.46308489 31.26783298 32.46308489 33.4375 32.375 C34.48744141 32.38660156 34.48744141 32.38660156 35.55859375 32.3984375 C38.21678015 32.07712607 38.21678015 32.07712607 41.2578125 30.48828125 C45.3496048 28.63714053 49.00925298 28.65449302 53.4375 28.8125 C54.53481445 28.83280273 54.53481445 28.83280273 55.65429688 28.85351562 C57.43652422 28.88846126 59.21836573 28.94225195 61 29 C60.979375 27.73285156 60.95875 26.46570313 60.9375 25.16015625 C60.9375 19.87414383 61.42984921 14.68828055 62 9.4375 C62.09539062 8.52419922 62.19078125 7.61089844 62.2890625 6.66992188 C62.52191875 4.44614468 62.75895855 2.22290224 63 0 C64.32 0 65.64 0 67 0 C67.20229487 6.94545707 66.41339147 13.62076335 65.5 20.5 C65.35691406 21.60859375 65.21382813 22.7171875 65.06640625 23.859375 C64.71543722 26.57353546 64.35986083 29.28700665 64 32 C60.08599074 32.68290834 56.16847178 33.3432233 52.25 34 C51.15816406 34.19078125 50.06632812 34.3815625 48.94140625 34.578125 C37.1394478 36.53347906 26.54962728 36.26654794 14.8125 34.0625 C13.77802734 33.88009766 12.74355469 33.69769531 11.67773438 33.50976562 C4.14845631 32.14845631 4.14845631 32.14845631 3 31 C2.70110333 29.22219339 2.46083841 27.43445312 2.24609375 25.64453125 C2.11396484 24.54689453 1.98183594 23.44925781 1.84570312 22.31835938 C1.71099609 21.16142578 1.57628906 20.00449219 1.4375 18.8125 C1.29892578 17.67490234 1.16035156 16.53730469 1.01757812 15.36523438 C0.40588146 10.20347874 -0.07700076 5.20457331 0 0 Z " fill="#223F66" transform="translate(215,326)"/>
<path d="M0 0 C2.64465038 3.1254959 3.84414715 6.08788267 5 10 C6.0725 9.95875 7.145 9.9175 8.25 9.875 C11.65747485 9.9885825 13.20739631 10.21273364 16 12 C15.01 12.763125 14.02 13.52625 13 14.3125 C10.71430131 16.53917831 10.04981625 17.64396034 9.6015625 20.84765625 C9.62276928 23.58686506 9.73805214 26.27380195 10 29 C9.113125 28.690625 8.22625 28.38125 7.3125 28.0625 C6.219375 27.711875 5.12625 27.36125 4 27 C3.175 26.731875 2.35 26.46375 1.5 26.1875 C-1.97518364 25.92686123 -4.00519072 27.33621707 -7 29 C-7.66 29 -8.32 29 -9 29 C-8.93039063 28.28714844 -8.86078125 27.57429688 -8.7890625 26.83984375 C-8.48691177 21.49465338 -8.35602096 17.96971552 -12 13.8125 C-12.97487914 12.84890418 -13.96689675 11.90089063 -15 11 C-12.24921116 10.08307039 -10.64051087 9.89113917 -7.8125 9.9375 C-5.9253125 9.9684375 -5.9253125 9.9684375 -4 10 C-3.79503906 9.36191406 -3.59007812 8.72382812 -3.37890625 8.06640625 C-3.10949219 7.24011719 -2.84007812 6.41382813 -2.5625 5.5625 C-2.16224609 4.32693359 -2.16224609 4.32693359 -1.75390625 3.06640625 C-1 1 -1 1 0 0 Z " fill="#A27E4B" transform="translate(248,54)"/>
<path d="M0 0 C0.33 0 0.66 0 1 0 C1.19697084 2.97880524 1.38277673 5.95764386 1.5625 8.9375 C1.64661133 10.18370117 1.64661133 10.18370117 1.73242188 11.45507812 C2.06270871 17.11399253 1.84153079 22.38793707 1 28 C-0.7859621 29.7859621 -3.58224185 29.21455841 -6 29.3125 C-11.40082134 29.66703969 -15.2141713 30.70011636 -19.98828125 33.14453125 C-23.10608065 34.47035274 -25.65917186 34.2843258 -29 34 C-29.66 32.68 -30.32 31.36 -31 30 C-30.01 30 -29.02 30 -28 30 C-27.67 22.08 -27.34 14.16 -27 6 C-26.01 6 -25.02 6 -24 6 C-23.67 13.92 -23.34 21.84 -23 30 C-20.03 28.02 -17.06 26.04 -14 24 C-10.21446208 22.42864464 -8.13125758 22 -4 22 C-4 19.36 -4 16.72 -4 14 C-3.34 13.67 -2.68 13.34 -2 13 C-1.56896902 10.48051359 -1.56896902 10.48051359 -1.4375 7.5625 C-1.0941704 2.18834081 -1.0941704 2.18834081 0 0 Z " fill="#607590" transform="translate(274,324)"/>
<path d="M0 0 C2.9375 1.375 2.9375 1.375 5 4 C5.87046411 8.59666133 5.84235437 12.52587986 3.5 16.625 C-0.05435077 18.57989292 -3.04061486 18.90871134 -7 18 C-9.78570637 15.84107756 -10.78058325 14.28450225 -11.375 10.8046875 C-11.5740789 7.03463074 -11.42531106 4.69751014 -9.4375 1.4375 C-6.02983728 -0.57214724 -3.89581737 -0.54678139 0 0 Z " fill="#2B476C" transform="translate(262,410)"/>
<path d="M0 0 C0.66 0.804375 1.32 1.60875 2 2.4375 C5.87979228 5.75148924 8.00014825 5.74577025 13 6 C12.319375 6.825 11.63875 7.65 10.9375 8.5 C9.02921969 11.29881112 8.80367907 13.03056853 9.25 16.375 C9.4975 17.57125 9.745 18.7675 10 20 C8.14375 19.6596875 8.14375 19.6596875 6.25 19.3125 C2.76728473 18.84535663 2.76728473 18.84535663 -0.375 20.4375 C-0.91125 20.953125 -1.4475 21.46875 -2 22 C-2.66 22 -3.32 22 -4 22 C-4.0928125 20.1746875 -4.0928125 20.1746875 -4.1875 18.3125 C-4.71163126 13.84150148 -6.50586395 11.86698342 -10 9 C-8.3603125 8.443125 -8.3603125 8.443125 -6.6875 7.875 C-3.45411511 6.5201201 -3.01423545 6.02341962 -1.0625 2.8125 C-0.711875 1.884375 -0.36125 0.95625 0 0 Z " fill="#A27D4A" transform="translate(215,68)"/>
<path d="M0 0 C2.2477975 2.05233685 3.0022242 3.00667261 4 6 C7.50294871 7.71567661 7.50294871 7.71567661 11 9 C10.195625 9.66 9.39125 10.32 8.5625 11 C5.24851076 14.87979228 5.25422975 17.00014825 5 22 C4.195625 21.5359375 4.195625 21.5359375 3.375 21.0625 C-0.92764635 19.1376319 -4.49866167 18.7097457 -9 20 C-8.96519531 19.40832031 -8.93039062 18.81664063 -8.89453125 18.20703125 C-8.72436825 13.2398924 -8.83144791 10.09271311 -12 6 C-10.7625 5.938125 -9.525 5.87625 -8.25 5.8125 C-4.69449876 5.39643071 -4.15360875 5.15744896 -1.5 2.4375 C-1.005 1.633125 -0.51 0.82875 0 0 Z " fill="#A27D49" transform="translate(281,68)"/>
<path d="M0 0 C9.87554656 0.42023602 18.03037184 3.12764241 26 9 C26.88751953 8.38511719 26.88751953 8.38511719 27.79296875 7.7578125 C28.58316406 7.21898437 29.37335938 6.68015625 30.1875 6.125 C31.35345703 5.32449219 31.35345703 5.32449219 32.54296875 4.5078125 C36.93585699 1.81201781 40.68226301 0.74586051 45.8125 0.375 C46.78832031 0.30023438 47.76414062 0.22546875 48.76953125 0.1484375 C49.50558594 0.09945313 50.24164063 0.05046875 51 0 C51 1.32 51 2.64 51 4 C51.99 4 52.98 4 54 4 C54.10477512 9.78591511 53.99250545 15.29309366 53 21 C52.67 21 52.34 21 52 21 C51.67 16.71 51.34 12.42 51 8 C50.34 14.27 49.68 20.54 49 27 C48.67 27 48.34 27 48 27 C47.89905696 18.58807963 47.89897358 10.35600408 49 2 C40.51880651 3.73864467 33.24368974 5.75631026 27 12 C26.62826984 14.6182767 26.62826984 14.6182767 26.5859375 17.6640625 C26.54726562 18.78554688 26.50859375 19.90703125 26.46875 21.0625 C26.42234375 22.8259375 26.42234375 22.8259375 26.375 24.625 C26.33632812 25.80835938 26.29765625 26.99171875 26.2578125 28.2109375 C26.16331155 31.14046691 26.07775442 34.06998597 26 37 C25.67 37 25.34 37 25 37 C25.00112793 36.26885986 25.00225586 35.53771973 25.00341797 34.78442383 C24.99128424 31.45951866 24.93361196 28.1368972 24.875 24.8125 C24.87757813 23.66201172 24.88015625 22.51152344 24.8828125 21.32617188 C24.90782485 15.4637917 24.90782485 15.4637917 22.79980469 10.16259766 C17.12993444 5.19825425 8.35984809 2.79565925 1 2 C0.67 2.66 0.34 3.32 0 4 C0 2.68 0 1.36 0 0 Z " fill="#29456A" transform="translate(223,318)"/>
<path d="M0 0 C1.93719378 -0.05406122 3.87481921 -0.09282025 5.8125 -0.125 C6.89144531 -0.14820313 7.97039062 -0.17140625 9.08203125 -0.1953125 C12 0 12 0 15 2 C14.835 3.093125 14.67 4.18625 14.5 5.3125 C13.6949387 11.24982707 14.54157366 13.13658796 18 18 C15.8125 18.4375 15.8125 18.4375 13 18 C11.01558218 15.86004673 9.4976696 13.49824035 8 11 C7.67 12.98 7.34 14.96 7 17 C7.66 17.33 8.32 17.66 9 18 C6.36 18 3.72 18 1 18 C1.33 17.34 1.66 16.68 2 16 C2.23029956 13.62876754 2.41119942 11.25258057 2.5625 8.875 C2.64628906 7.59367187 2.73007813 6.31234375 2.81640625 4.9921875 C2.90728516 3.51105469 2.90728516 3.51105469 3 2 C2.01 2 1.02 2 0 2 C0 1.34 0 0.68 0 0 Z " fill="#334E71" transform="translate(209,410)"/>
<path d="M0 0 C2.26998857 3.40498285 3.92252127 6.98149446 5.625 10.6875 C5.94984375 11.38939453 6.2746875 12.09128906 6.609375 12.81445312 C7.40848336 14.54193738 8.20454043 16.27083254 9 18 C11.74054368 14.67513619 13.42376049 11.16942114 15.1875 7.25 C15.71730469 6.07953125 16.24710938 4.9090625 16.79296875 3.703125 C17.19128906 2.81109375 17.58960938 1.9190625 18 1 C20.85092647 3.85092647 20.66925114 6.97233943 21.0625 10.8125 C21.54813136 15.24739795 22.03170755 19.63839951 23 24 C21.35 24 19.7 24 18 24 C17.67 18.72 17.34 13.44 17 8 C14.69 13.28 12.38 18.56 10 24 C5.62655999 19.62655999 3.69114402 14.56169764 1 9 C0.67 13.95 0.34 18.9 0 24 C-1.65 24 -3.3 24 -5 24 C-4.34 23.67 -3.68 23.34 -3 23 C-2.54707949 20.78772291 -2.54707949 20.78772291 -2.40234375 18.125 C-2.32306641 17.14015625 -2.24378906 16.1553125 -2.16210938 15.140625 C-2.08798828 14.10421875 -2.01386719 13.0678125 -1.9375 12 C-1.78384478 9.95803636 -1.62649486 7.91634621 -1.46484375 5.875 C-1.36610962 4.50988281 -1.36610962 4.50988281 -1.26538086 3.1171875 C-1 1 -1 1 0 0 Z " fill="#AD8C5F" transform="translate(118,212)"/>
<path d="M0 0 C1.99436317 2.99154475 2.30011005 3.96768769 2.59765625 7.37890625 C2.67693359 8.21744141 2.75621094 9.05597656 2.83789062 9.91992188 C2.91201172 10.79197266 2.98613281 11.66402344 3.0625 12.5625 C3.21660177 14.29327942 3.3739965 16.02376976 3.53515625 17.75390625 C3.600979 18.52033447 3.66680176 19.2867627 3.73461914 20.07641602 C3.90619933 22.07971413 3.90619933 22.07971413 5 24 C3.35 24 1.7 24 0 24 C0.01160156 23.40832031 0.02320313 22.81664062 0.03515625 22.20703125 C0.08322386 17.99768215 0.06006883 14.1077667 -1 10 C-3.39073149 12.93189994 -4.84107307 15.72143288 -6.1875 19.25 C-6.53167969 20.14203125 -6.87585938 21.0340625 -7.23046875 21.953125 C-7.48441406 22.62859375 -7.73835938 23.3040625 -8 24 C-8.66 24 -9.32 24 -10 24 C-12.31 18.72 -14.62 13.44 -17 8 C-17.33 13.28 -17.66 18.56 -18 24 C-19.32 23.67 -20.64 23.34 -22 23 C-21.505 21.515 -21.505 21.515 -21 20 C-20.789235 18.5211813 -20.61446626 17.03703148 -20.46484375 15.55078125 C-20.37783203 14.70322266 -20.29082031 13.85566406 -20.20117188 12.98242188 C-20.11416016 12.10134766 -20.02714844 11.22027344 -19.9375 10.3125 C-19.84662109 9.41982422 -19.75574219 8.52714844 -19.66210938 7.60742188 C-19.43835801 5.40523735 -19.21777399 3.20278232 -19 1 C-18.34 1 -17.68 1 -17 1 C-14.36 6.61 -11.72 12.22 -9 18 C-6.73001143 14.59501715 -5.07747873 11.01850554 -3.375 7.3125 C-3.05015625 6.61060547 -2.7253125 5.90871094 -2.390625 5.18554688 C-1.59151664 3.45806262 -0.79545957 1.72916746 0 0 Z " fill="#B29369" transform="translate(310,258)"/>
<path d="M0 0 C1.99436317 2.99154475 2.30011005 3.96768769 2.59765625 7.37890625 C2.67693359 8.21744141 2.75621094 9.05597656 2.83789062 9.91992188 C2.91201172 10.79197266 2.98613281 11.66402344 3.0625 12.5625 C3.21660177 14.29327942 3.3739965 16.02376976 3.53515625 17.75390625 C3.600979 18.52033447 3.66680176 19.2867627 3.73461914 20.07641602 C3.90619933 22.07971413 3.90619933 22.07971413 5 24 C3.35 24 1.7 24 0 24 C0.01160156 23.40832031 0.02320313 22.81664062 0.03515625 22.20703125 C0.08322386 17.99768215 0.06006883 14.1077667 -1 10 C-3.39073149 12.93189994 -4.84107307 15.72143288 -6.1875 19.25 C-6.53167969 20.14203125 -6.87585938 21.0340625 -7.23046875 21.953125 C-7.48441406 22.62859375 -7.73835938 23.3040625 -8 24 C-8.66 24 -9.32 24 -10 24 C-12.31 18.72 -14.62 13.44 -17 8 C-17.33 13.28 -17.66 18.56 -18 24 C-19.32 23.67 -20.64 23.34 -22 23 C-21.505 21.515 -21.505 21.515 -21 20 C-20.789235 18.5211813 -20.61446626 17.03703148 -20.46484375 15.55078125 C-20.37783203 14.70322266 -20.29082031 13.85566406 -20.20117188 12.98242188 C-20.11416016 12.10134766 -20.02714844 11.22027344 -19.9375 10.3125 C-19.84662109 9.41982422 -19.75574219 8.52714844 -19.66210938 7.60742188 C-19.43835801 5.40523735 -19.21777399 3.20278232 -19 1 C-18.34 1 -17.68 1 -17 1 C-14.36 6.61 -11.72 12.22 -9 18 C-6.73001143 14.59501715 -5.07747873 11.01850554 -3.375 7.3125 C-3.05015625 6.61060547 -2.7253125 5.90871094 -2.390625 5.18554688 C-1.59151664 3.45806262 -0.79545957 1.72916746 0 0 Z " fill="#B29369" transform="translate(303,212)"/>
<path d="M0 0 C0.66 0 1.32 0 2 0 C2.2673999 0.62567871 2.5347998 1.25135742 2.81030273 1.89599609 C4.01874018 4.72259983 5.22810848 7.54880435 6.4375 10.375 C7.06881836 11.85226563 7.06881836 11.85226563 7.71289062 13.359375 C8.11572266 14.30039063 8.51855469 15.24140625 8.93359375 16.2109375 C9.4913147 17.51490479 9.4913147 17.51490479 10.06030273 18.84521484 C10.67127388 20.24621026 11.31646889 21.63293778 12 23 C10.02 23 8.04 23 6 23 C5.67 20.69 5.34 18.38 5 16 C2.03 15.67 -0.94 15.34 -4 15 C-4.66 17.64 -5.32 20.28 -6 23 C-7.65 23 -9.3 23 -11 23 C-10.12601563 21.78957031 -10.12601563 21.78957031 -9.234375 20.5546875 C-6.63372979 16.65371968 -4.96605613 12.47037818 -3.25 8.125 C-2.93417969 7.34125 -2.61835938 6.5575 -2.29296875 5.75 C-1.52260172 3.83575465 -0.76044753 1.91820754 0 0 Z " fill="#AF8F64" transform="translate(213,213)"/>
<path d="M0 0 C0.66 0 1.32 0 2 0 C2.2673999 0.62567871 2.5347998 1.25135742 2.81030273 1.89599609 C4.01874018 4.72259983 5.22810848 7.54880435 6.4375 10.375 C7.06881836 11.85226563 7.06881836 11.85226563 7.71289062 13.359375 C8.11572266 14.30039063 8.51855469 15.24140625 8.93359375 16.2109375 C9.4913147 17.51490479 9.4913147 17.51490479 10.06030273 18.84521484 C10.67127388 20.24621026 11.31646889 21.63293778 12 23 C10.02 23 8.04 23 6 23 C5.67 20.69 5.34 18.38 5 16 C2.03 15.67 -0.94 15.34 -4 15 C-4.66 17.64 -5.32 20.28 -6 23 C-7.65 23 -9.3 23 -11 23 C-10.12601563 21.78957031 -10.12601563 21.78957031 -9.234375 20.5546875 C-6.63372979 16.65371968 -4.96605613 12.47037818 -3.25 8.125 C-2.93417969 7.34125 -2.61835938 6.5575 -2.29296875 5.75 C-1.52260172 3.83575465 -0.76044753 1.91820754 0 0 Z " fill="#AF8F64" transform="translate(190,167)"/>
<path d="M0 0 C1.98 0 3.96 0 6 0 C5.67 0.66 5.34 1.32 5 2 C4.84777027 3.66565749 4.75082785 5.33656496 4.68359375 7.0078125 C4.64169922 7.99394531 4.59980469 8.98007813 4.55664062 9.99609375 C4.51732422 11.02863281 4.47800781 12.06117188 4.4375 13.125 C4.39431641 14.16527344 4.35113281 15.20554688 4.30664062 16.27734375 C4.2003712 18.85142528 4.09833417 21.42560508 4 24 C-2.31919558 18.78485044 -7.54300083 13.12977989 -13 7 C-13 12.61 -13 18.22 -13 24 C-14.32 23.67 -15.64 23.34 -17 23 C-16.67 15.74 -16.34 8.48 -16 1 C-8.03225806 7.82949309 -8.03225806 7.82949309 -5.25 10.625 C-4.69828125 11.17414063 -4.1465625 11.72328125 -3.578125 12.2890625 C-1.90585288 14.10207039 -0.44679175 16.00412463 1 18 C1.02690844 15.37493198 1.04679404 12.75013827 1.0625 10.125 C1.07087891 9.37863281 1.07925781 8.63226563 1.08789062 7.86328125 C1.20688084 3.80154422 1.20688084 3.80154422 0 0 Z " fill="#AC8C5E" transform="translate(330,166)"/>
<path d="M0 0 C2.26506464 2.26506464 2.97267913 4.04637383 4.1640625 7.0078125 C4.56367188 7.99394531 4.96328125 8.98007813 5.375 9.99609375 C5.7875 11.02863281 6.2 12.06117188 6.625 13.125 C7.04523438 14.16527344 7.46546875 15.20554688 7.8984375 16.27734375 C8.93684717 18.8497677 9.97048792 21.42400511 11 24 C9.35 24 7.7 24 6 24 C5.67 21.36 5.34 18.72 5 16 C1.7 16 -1.6 16 -5 16 C-5.33 18.64 -5.66 21.28 -6 24 C-7.65 24 -9.3 24 -11 24 C-10.34 23.67 -9.68 23.34 -9 23 C-8.31274007 20.97258322 -7.63424483 18.94184354 -6.99609375 16.8984375 C-5.01374307 11.13018571 -2.45298375 5.58073649 0 0 Z " fill="#A98657" transform="translate(157,212)"/>
<path d="M0 0 C3.75212276 2.01502889 5.63644095 3.45466142 8 7 C8.58760427 11.50242236 8.50290275 15.68686505 6.875 19.9375 C3.73653297 23.38981374 0.58443838 24.76893607 -4 25.4375 C-7.94665429 24.86194625 -9.96043437 23.56674431 -13 21 C-15.64201025 16.94891762 -16.70236884 13.8162435 -16 9 C-12.13269111 1.95597309 -8.315674 -1.47123463 0 0 Z M-11 4 C-13.54574584 8.22199399 -13.78929875 12.18943185 -13 17 C-11.693177 19.98441903 -10.66278502 20.83648717 -8 23 C-5.13582616 23.79688708 -2.8726672 23.7355418 0 23 C3.24600077 21.42251492 3.24600077 21.42251492 5 18 C5.62960067 13.91595319 5.80998105 10.0610774 5 6 C2.57506614 2.91939733 1.39808856 2.10856961 -2.4375 1.0625 C-6.44403151 0.99220997 -7.94354518 1.46750886 -11 4 Z " fill="#BBA07A" transform="translate(209,120)"/>
<path d="M0 0 C5.66666667 5.66666667 11.33333333 11.33333333 17 17 C17.33 11.72 17.66 6.44 18 1 C18.66 1 19.32 1 20 1 C20 8.59 20 16.18 20 24 C15.5680717 20.20120431 11.88213143 16.97114985 8.125 12.6875 C6.98417969 11.39392578 6.98417969 11.39392578 5.8203125 10.07421875 C5.21960938 9.38972656 4.61890625 8.70523438 4 8 C3.67 7.67 3.34 7.34 3 7 C3 12.61 3 18.22 3 24 C1.68 23.67 0.36 23.34 -1 23 C-0.67 15.41 -0.34 7.82 0 0 Z " fill="#AF9064" transform="translate(338,212)"/>
<path d="M0 0 C4.29 0 8.58 0 13 0 C13 1.65 13 3.3 13 5 C12.34 4.34 11.68 3.68 11 3 C8.42938689 2.35232207 8.42938689 2.35232207 6 2 C6 3.98 6 5.96 6 8 C7.98 8 9.96 8 12 8 C12 8.66 12 9.32 12 10 C10.02 10 8.04 10 6 10 C6 11.98 6 13.96 6 16 C8.64 15.34 11.28 14.68 14 14 C14 15.32 14 16.64 14 18 C9.38 18 4.76 18 0 18 C0.33 17.34 0.66 16.68 1 16 C1.09715342 13.66831782 1.12978217 11.33370043 1.125 9 C1.12757813 7.741875 1.13015625 6.48375 1.1328125 5.1875 C1.22227358 2.10322182 1.22227358 2.10322182 0 0 Z " fill="#28456A" transform="translate(273,410)"/>
<path d="M0 0 C4.62 0 9.24 0 14 0 C13.67 1.32 13.34 2.64 13 4 C13 3.34 13 2.68 13 2 C10.36 2 7.72 2 5 2 C5 5.3 5 8.6 5 12 C8.465 11.505 8.465 11.505 12 11 C11.67 11.99 11.34 12.98 11 14 C8.03 13.505 8.03 13.505 5 13 C5 16.3 5 19.6 5 23 C10.3086849 22.41825155 10.3086849 22.41825155 15 20 C14.67 21.32 14.34 22.64 14 24 C9.71 24 5.42 24 1 24 C1.01160156 22.43507812 1.02320313 20.87015625 1.03515625 19.2578125 C1.04453363 17.21354286 1.05363389 15.16927193 1.0625 13.125 C1.07087891 12.09246094 1.07925781 11.05992187 1.08789062 9.99609375 C1.09111328 9.00996094 1.09433594 8.02382812 1.09765625 7.0078125 C1.10289307 6.09660645 1.10812988 5.18540039 1.11352539 4.24658203 C1.14885565 1.96312491 1.14885565 1.96312491 0 0 Z " fill="#B79B73" transform="translate(266,120)"/>
<path d="M0 0 C2.5625 1.5 2.5625 1.5 4 3 C3.67 4.32 3.34 5.64 3 7 C2.67 5.68 2.34 4.36 2 3 C-4.1096145 1.83831032 -4.1096145 1.83831032 -10 3.3125 C-12.32339529 5.27286477 -12.91377739 6.20138074 -13.23828125 9.20703125 C-13.35768908 13.39887447 -13.33782083 16.29620661 -11.5 20.125 C-8.45507418 22.40869436 -6.63356595 22.66877288 -2.8984375 22.42578125 C0.03731399 21.76735139 1.26853531 20.39741265 3 18 C4.23512079 15.86690808 4.23512079 15.86690808 5 14 C5.30859658 17.39456234 5.38720463 19.37710559 3.5625 22.3125 C-0.15350801 24.75962723 -3.57738433 25.32248239 -8 25 C-12.41662206 22.87347827 -15.0983726 20.54277658 -17 16 C-17.53715295 10.98657251 -17.12527558 7.98742057 -14 4 C-9.86058174 -0.50466105 -5.82466963 -0.94542212 0 0 Z " fill="#B69971" transform="translate(224,166)"/>
<path d="M0 0 C2.5625 1.5 2.5625 1.5 4 3 C3.67 4.32 3.34 5.64 3 7 C2.67 5.68 2.34 4.36 2 3 C-4.1096145 1.83831032 -4.1096145 1.83831032 -10 3.3125 C-12.32339529 5.27286477 -12.91377739 6.20138074 -13.23828125 9.20703125 C-13.35768908 13.39887447 -13.33782083 16.29620661 -11.5 20.125 C-8.45507418 22.40869436 -6.63356595 22.66877288 -2.8984375 22.42578125 C0.03731399 21.76735139 1.26853531 20.39741265 3 18 C4.23512079 15.86690808 4.23512079 15.86690808 5 14 C5.30859658 17.39456234 5.38720463 19.37710559 3.5625 22.3125 C-0.15350801 24.75962723 -3.57738433 25.32248239 -8 25 C-12.41662206 22.87347827 -15.0983726 20.54277658 -17 16 C-17.53715295 10.98657251 -17.12527558 7.98742057 -14 4 C-9.86058174 -0.50466105 -5.82466963 -0.94542212 0 0 Z " fill="#B69971" transform="translate(182,120)"/>
<path d="M0 0 C0.33419641 3.59261138 0.21511245 5.59666415 -1.5 8.8125 C-4.41631319 11.36427405 -6.28607353 12.0100999 -10.09765625 12.265625 C-12 12 -12 12 -14.4375 9.875 C-15.92216793 7.14321101 -16.64912084 5.07019267 -17 2 C-12.68607774 2.4793247 -10.83430453 3.7457985 -8 7 C-7.54625 6.030625 -7.0925 5.06125 -6.625 4.0625 C-4.6090044 0.26312369 -4.23094571 0 0 0 Z " fill="#A4804E" transform="translate(201,336)"/>
<path d="M0 0 C4.62 0 9.24 0 14 0 C13.67 0.99 13.34 1.98 13 3 C10.36 2.67 7.72 2.34 5 2 C5 5.3 5 8.6 5 12 C7.31 12 9.62 12 12 12 C12 12.33 12 12.66 12 13 C9.69 13 7.38 13 5 13 C5 16.3 5 19.6 5 23 C7.97 22.67 10.94 22.34 14 22 C14 22.66 14 23.32 14 24 C9.38 24 4.76 24 0 24 C0.66 23.67 1.32 23.34 2 23 C1.86149295 19.54133208 1.71295273 16.08316725 1.5625 12.625 C1.52318359 11.64015625 1.48386719 10.6553125 1.44335938 9.640625 C1.40146484 8.69960938 1.35957031 7.75859375 1.31640625 6.7890625 C1.27974854 5.91975098 1.24309082 5.05043945 1.20532227 4.15478516 C1.12598456 1.9516738 1.12598456 1.9516738 0 0 Z " fill="#B69A72" transform="translate(266,258)"/>
<path d="M0 0 C4.62 0 9.24 0 14 0 C13.67 0.99 13.34 1.98 13 3 C10.36 2.67 7.72 2.34 5 2 C5 5.3 5 8.6 5 12 C7.31 12 9.62 12 12 12 C12 12.33 12 12.66 12 13 C9.69 13 7.38 13 5 13 C5 16.3 5 19.6 5 23 C7.97 22.67 10.94 22.34 14 22 C14 22.66 14 23.32 14 24 C9.38 24 4.76 24 0 24 C0.66 23.67 1.32 23.34 2 23 C1.86149295 19.54133208 1.71295273 16.08316725 1.5625 12.625 C1.52318359 11.64015625 1.48386719 10.6553125 1.44335938 9.640625 C1.40146484 8.69960937 1.35957031 7.75859375 1.31640625 6.7890625 C1.27974854 5.91975098 1.24309082 5.05043945 1.20532227 4.15478516 C1.12598456 1.9516738 1.12598456 1.9516738 0 0 Z " fill="#B69A72" transform="translate(290,166)"/>
<path d="M0 0 C4.62 0 9.24 0 14 0 C13.67 0.99 13.34 1.98 13 3 C10.36 2.67 7.72 2.34 5 2 C5 5.3 5 8.6 5 12 C7.31 12 9.62 12 12 12 C12 12.33 12 12.66 12 13 C9.69 13 7.38 13 5 13 C5 16.3 5 19.6 5 23 C7.97 22.67 10.94 22.34 14 22 C14 22.66 14 23.32 14 24 C9.38 24 4.76 24 0 24 C0.66 23.67 1.32 23.34 2 23 C1.86149295 19.54133208 1.71295273 16.08316725 1.5625 12.625 C1.52318359 11.64015625 1.48386719 10.6553125 1.44335938 9.640625 C1.40146484 8.69960937 1.35957031 7.75859375 1.31640625 6.7890625 C1.27974854 5.91975098 1.24309082 5.05043945 1.20532227 4.15478516 C1.12598456 1.9516738 1.12598456 1.9516738 0 0 Z " fill="#B69A72" transform="translate(235,166)"/>
<path d="M0 0 C6.6 0 13.2 0 20 0 C19.67 0.99 19.34 1.98 19 3 C16.69 2.67 14.38 2.34 12 2 C12 8.93 12 15.86 12 23 C12.66 23.33 13.32 23.66 14 24 C12.02 24 10.04 24 8 24 C8.33 16.74 8.66 9.48 9 2 C2.68516016 2.52565835 2.68516016 2.52565835 0 4 C0 2.68 0 1.36 0 0 Z " fill="#B69971" transform="translate(241,258)"/>
<path d="M0 0 C6.6 0 13.2 0 20 0 C19.67 0.99 19.34 1.98 19 3 C16.69 2.67 14.38 2.34 12 2 C12 8.93 12 15.86 12 23 C12.66 23.33 13.32 23.66 14 24 C12.02 24 10.04 24 8 24 C8.33 16.74 8.66 9.48 9 2 C2.68516016 2.52565835 2.68516016 2.52565835 0 4 C0 2.68 0 1.36 0 0 Z " fill="#B69971" transform="translate(340,166)"/>
<path d="M0 0 C2.375 0.625 2.375 0.625 5 2 C6.3125 5.125 6.3125 5.125 7 8 C7.556875 7.195625 8.11375 6.39125 8.6875 5.5625 C11.21864487 2.75771784 12.32579134 2.30618405 16 2 C15.49942399 6.38004013 14.35551624 9.07467815 11 12 C8.12325932 12.34219294 5.72844955 11.9442405 3 11 C1 9.375 1 9.375 0 7 C-0.1875 3.25 -0.1875 3.25 0 0 Z " fill="#A4814F" transform="translate(300,336)"/>
<path d="M0 0 C6.32829687 5.42425446 11.48738188 10.80774403 17 17 C17 11.39 17 5.78 17 0 C17.99 0.33 18.98 0.66 20 1 C19.67 7.93 19.34 14.86 19 22 C11.03118908 15.16959064 11.03118908 15.16959064 7.6875 11.8125 C7.03136719 11.15894531 6.37523437 10.50539062 5.69921875 9.83203125 C4 8 4 8 2 5 C2 10.94 2 16.88 2 23 C1.01 22.67 0.02 22.34 -1 22 C-0.67 14.74 -0.34 7.48 0 0 Z " fill="#A68352" transform="translate(176,213)"/>
<path d="M0 0 C0.66 0.33 1.32 0.66 2 1 C1.67 2.32 1.34 3.64 1 5 C0.34 5 -0.32 5 -1 5 C-1.33 4.34 -1.66 3.68 -2 3 C-3.65 3.33 -5.3 3.66 -7 4 C-7.0270043 5.45823212 -7.04639787 6.91660675 -7.0625 8.375 C-7.07410156 9.18710937 -7.08570313 9.99921875 -7.09765625 10.8359375 C-7.14466334 13.04937142 -7.14466334 13.04937142 -6 15 C-1.85906302 15.20970559 -1.85906302 15.20970559 2 14 C2 14.99 2 15.98 2 17 C-1.17821535 18.58910767 -4.53939729 18.40420974 -8 18 C-10.67431489 16.18836733 -10.95920359 15.12238923 -12 12 C-12.48371102 7.64660085 -12.48792815 5.69492797 -9.9375 2.0625 C-6.32000344 -0.47744439 -4.33327174 -0.49055907 0 0 Z " fill="#203E64" transform="translate(243,410)"/>
<path d="M0 0 C0.78375 0.04125 1.5675 0.0825 2.375 0.125 C3.61877393 2.61254786 3.50806235 4.35155301 3.5 7.125 C3.50257813 8.011875 3.50515625 8.89875 3.5078125 9.8125 C3.375 12.125 3.375 12.125 2.375 14.125 C0.395 14.125 -1.585 14.125 -3.625 14.125 C-4.86387548 11.64724905 -4.79241669 9.88846293 -4.8125 7.125 C-4.82667969 6.238125 -4.84085938 5.35125 -4.85546875 4.4375 C-4.50754356 0.94645407 -3.45697596 0.1646179 0 0 Z " fill="#F9F9FA" transform="translate(259.625,411.875)"/>
<path d="M0 0 C9.72471667 -0.61311699 9.72471667 -0.61311699 14.25 1.5625 C16 4 16 4 15.9375 7.625 C15 11 15 11 13 13 C10.875 12.625 10.875 12.625 9 12 C9.99 11.34 10.98 10.68 12 10 C12.2502157 6.91634129 12.2502157 6.91634129 12 4 C9.69 3.34 7.38 2.68 5 2 C5.33 9.26 5.66 16.52 6 24 C4.35 24 2.7 24 1 24 C1.66 23.67 2.32 23.34 3 23 C2.8904307 19.54099522 2.75973152 16.08310891 2.625 12.625 C2.5940625 11.64015625 2.563125 10.6553125 2.53125 9.640625 C2.49257812 8.69960937 2.45390625 7.75859375 2.4140625 6.7890625 C2.3826416 5.91975098 2.3512207 5.05043945 2.31884766 4.15478516 C2.18770567 1.79038206 2.18770567 1.79038206 0 0 Z " fill="#A4804E" transform="translate(138,166)"/>
<path d="M0 0 C2.31 0 4.62 0 7 0 C6.60167969 0.44730469 6.20335937 0.89460938 5.79296875 1.35546875 C4.99826172 2.26232422 4.99826172 2.26232422 4.1875 3.1875 C3.66542969 3.77917969 3.14335937 4.37085938 2.60546875 4.98046875 C-1.00561394 9.5228769 -2.38145965 12.4290572 -2.1875 18.3125 C-2.16042969 19.38113281 -2.13335937 20.44976562 -2.10546875 21.55078125 C-2.07066406 22.35902344 -2.03585938 23.16726563 -2 24 C-3.98 24 -5.96 24 -8 24 C-7.34 23.67 -6.68 23.34 -6 23 C-6.03377209 14.26991353 -8.35773353 8.33960785 -13 1 C-11.68 1 -10.36 1 -9 1 C-8.73445312 1.63808594 -8.46890625 2.27617187 -8.1953125 2.93359375 C-7.84210938 3.75988281 -7.48890625 4.58617187 -7.125 5.4375 C-6.60292969 6.67306641 -6.60292969 6.67306641 -6.0703125 7.93359375 C-5.1755063 10.15746715 -5.1755063 10.15746715 -3 11 C-1.38935371 7.34920174 -0.55105909 3.9492568 0 0 Z " fill="#AE8E62" transform="translate(214,258)"/>
<path d="M0 0 C4.29 0 8.58 0 13 0 C13 0.66 13 1.32 13 2 C10.03 2 7.06 2 4 2 C4 5.3 4 8.6 4 12 C6.31 12 8.62 12 11 12 C11.33 11.34 11.66 10.68 12 10 C11.67 11.32 11.34 12.64 11 14 C8.69 13.67 6.38 13.34 4 13 C4 16.3 4 19.6 4 23 C9.3907997 22.76995266 9.3907997 22.76995266 14 20.4375 C14.33 19.963125 14.66 19.48875 15 19 C14.67 20.65 14.34 22.3 14 24 C9.38 24 4.76 24 0 24 C0.66 23.67 1.32 23.34 2 23 C1.86149295 19.54133208 1.71295273 16.08316725 1.5625 12.625 C1.52318359 11.64015625 1.48386719 10.6553125 1.44335938 9.640625 C1.40146484 8.69960937 1.35957031 7.75859375 1.31640625 6.7890625 C1.27974854 5.91975098 1.24309082 5.05043945 1.20532227 4.15478516 C1.12598456 1.9516738 1.12598456 1.9516738 0 0 Z " fill="#AE8E61" transform="translate(317,120)"/>
<path d="M0 0 C-0.33 0.99 -0.66 1.98 -1 3 C-2.65 2.67 -4.3 2.34 -6 2 C-6.74957157 5.47147842 -6.74957157 5.47147842 -7 9 C-6.4225 9.2475 -5.845 9.495 -5.25 9.75 C-2.53776451 11.2567975 -0.88248076 12.51243613 1 15 C1.5 18.5625 1.5 18.5625 1 22 C-0.5625 24 -0.5625 24 -3 25 C-9.43636364 24.56363636 -9.43636364 24.56363636 -11 23 C-11.04063832 21.33382885 -11.042721 19.66611905 -11 18 C-10.608125 18.66 -10.21625 19.32 -9.8125 20 C-8.14583333 22.29166667 -8.14583333 22.29166667 -5.3125 22.25 C-4.549375 22.1675 -3.78625 22.085 -3 22 C-2.14589599 19.70376131 -2.14589599 19.70376131 -2 17 C-3.631505 14.86743803 -3.631505 14.86743803 -5.9375 13.0625 C-9.92334906 9.36931818 -9.92334906 9.36931818 -10.6875 5.6875 C-10 3 -10 3 -8.9375 1.125 C-5.99772876 -0.58196395 -3.32129197 -0.18799766 0 0 Z " fill="#B09165" transform="translate(193,258)"/>
<path d="M0 0 C2.27734375 1.0234375 2.27734375 1.0234375 4 2 C4 3.65 4 5.3 4 7 C3.75894531 6.35933594 3.51789063 5.71867188 3.26953125 5.05859375 C2.19448046 2.83664539 2.19448046 2.83664539 0.01171875 2.28515625 C-3.89727331 1.91068138 -6.33545881 1.70926323 -10 3.3125 C-12.32339529 5.27286477 -12.91377739 6.20138074 -13.23828125 9.20703125 C-13.35600277 13.33967609 -13.33971439 16.27626065 -11.5625 20.0625 C-7.91685316 22.81896468 -4.47619063 22.89479039 0 23 C0 23.33 0 23.66 0 24 C-8.92989844 24.62422591 -8.92989844 24.62422591 -13 22.25 C-16.0103761 18.86332689 -16.89710076 17.13189161 -17.3125 12.5625 C-16.87414476 7.56525029 -15.205439 5.31180127 -11.875 1.6875 C-7.94320279 -0.62029402 -4.46685163 -0.68720794 0 0 Z " fill="#B2946A" transform="translate(247,212)"/>
<path d="M0 0 C2.27734375 1.0234375 2.27734375 1.0234375 4 2 C4 3.65 4 5.3 4 7 C3.75894531 6.35933594 3.51789063 5.71867187 3.26953125 5.05859375 C2.19448046 2.83664539 2.19448046 2.83664539 0.01171875 2.28515625 C-3.89727331 1.91068138 -6.33545881 1.70926323 -10 3.3125 C-12.32339529 5.27286477 -12.91377739 6.20138074 -13.23828125 9.20703125 C-13.35600277 13.33967609 -13.33971439 16.27626065 -11.5625 20.0625 C-7.91685316 22.81896468 -4.47619063 22.89479039 0 23 C0 23.33 0 23.66 0 24 C-8.92989844 24.62422591 -8.92989844 24.62422591 -13 22.25 C-16.0103761 18.86332689 -16.89710076 17.13189161 -17.3125 12.5625 C-16.87414476 7.56525029 -15.205439 5.31180127 -11.875 1.6875 C-7.94320279 -0.62029402 -4.46685163 -0.68720794 0 0 Z " fill="#B2946A" transform="translate(304,120)"/>
<path d="M0 0 C4.62 0 9.24 0 14 0 C13.67 0.99 13.34 1.98 13 3 C10.36 2.67 7.72 2.34 5 2 C5 5.3 5 8.6 5 12 C7.31 12 9.62 12 12 12 C12 12.33 12 12.66 12 13 C9.69 13 7.38 13 5 13 C5 16.3 5 19.6 5 23 C8.3 22.34 11.6 21.68 15 21 C14.67 21.99 14.34 22.98 14 24 C9.71 24 5.42 24 1 24 C1.66 23.67 2.32 23.34 3 23 C2.8904307 19.54099522 2.75973152 16.08310891 2.625 12.625 C2.5940625 11.64015625 2.563125 10.6553125 2.53125 9.640625 C2.49257813 8.69960937 2.45390625 7.75859375 2.4140625 6.7890625 C2.3826416 5.91975098 2.3512207 5.05043945 2.31884766 4.15478516 C2.18770567 1.79038206 2.18770567 1.79038206 0 0 Z " fill="#AB8A5B" transform="translate(314,212)"/>
<path d="M0 0 C4.62 0 9.24 0 14 0 C13.67 0.99 13.34 1.98 13 3 C10.36 2.67 7.72 2.34 5 2 C5 5.3 5 8.6 5 12 C7.31 12 9.62 12 12 12 C12 12.33 12 12.66 12 13 C9.69 13 7.38 13 5 13 C5 16.3 5 19.6 5 23 C8.3 22.34 11.6 21.68 15 21 C14.67 21.99 14.34 22.98 14 24 C9.71 24 5.42 24 1 24 C1.66 23.67 2.32 23.34 3 23 C2.8904307 19.54099522 2.75973152 16.08310891 2.625 12.625 C2.5940625 11.64015625 2.563125 10.6553125 2.53125 9.640625 C2.49257813 8.69960937 2.45390625 7.75859375 2.4140625 6.7890625 C2.3826416 5.91975098 2.3512207 5.05043945 2.31884766 4.15478516 C2.18770567 1.79038206 2.18770567 1.79038206 0 0 Z " fill="#AB8A5B" transform="translate(259,212)"/>
<path d="M0 0 C1.9375 0.6875 1.9375 0.6875 4 2 C4.75 4.625 4.75 4.625 5 7 C5.556875 6.505 6.11375 6.01 6.6875 5.5 C9.38162983 3.75245633 10.85375007 3.73781251 14 4 C13.09627089 6.78649808 12.2608483 8.72051967 10.25 10.875 C7.11565698 12.44217151 5.30154941 12.00481939 2 11 C-0.67927341 6.98108988 -0.15601248 4.75838077 0 0 Z " fill="#A98758" transform="translate(187,305)"/>
<path d="M0 0 C6.6 0 13.2 0 20 0 C19.67 1.32 19.34 2.64 19 4 C19 3.34 19 2.68 19 2 C16.36 2 13.72 2 11 2 C11.33 9.26 11.66 16.52 12 24 C10.35 24 8.7 24 7 24 C7.66 23.67 8.32 23.34 9 23 C9 16.07 9 9.14 9 2 C4.545 2.495 4.545 2.495 0 3 C0 2.01 0 1.02 0 0 Z " fill="#B3956B" transform="translate(365,212)"/>
<path d="M0 0 C0.99 0.33 1.98 0.66 3 1 C3 1.66 3 2.32 3 3 C2.14535156 3.27714844 1.29070312 3.55429687 0.41015625 3.83984375 C-0.69457031 4.20207031 -1.79929687 4.56429688 -2.9375 4.9375 C-4.59072266 5.47697266 -4.59072266 5.47697266 -6.27734375 6.02734375 C-8.88123475 6.73856668 -8.88123475 6.73856668 -10 8 C-9.15695312 8.26554687 -8.31390625 8.53109375 -7.4453125 8.8046875 C-5.80175781 9.33449219 -5.80175781 9.33449219 -4.125 9.875 C-3.03445313 10.22304688 -1.94390625 10.57109375 -0.8203125 10.9296875 C2 12 2 12 4 14 C-0.10654678 15.72852097 -3.54846857 14.10314573 -7.5 12.6875 C-8.49580078 12.3481543 -8.49580078 12.3481543 -9.51171875 12.00195312 C-12.79124714 10.86622822 -15.94803605 9.65833755 -19 8 C-12.72019113 5.29928888 -6.71539173 3.29975324 0 2 C0 1.34 0 0.68 0 0 Z " fill="#AE8E61" transform="translate(266,389)"/>
<path d="M0 0 C2.56748507 1.28374254 2.77517147 2.32763938 3.91015625 4.9296875 C4.26013672 5.72503906 4.61011719 6.52039063 4.97070312 7.33984375 C5.33099609 8.17644531 5.69128906 9.01304687 6.0625 9.875 C6.60874023 11.11830078 6.60874023 11.11830078 7.16601562 12.38671875 C8.55800109 15.5720755 9.90005373 18.70016118 11 22 C10.34 22.66 9.68 23.32 9 24 C6.69 19.05 4.38 14.1 2 9 C1.34 13.95 0.68 18.9 0 24 C-0.99 23.67 -1.98 23.34 -3 23 C-2.01 15.41 -1.02 7.82 0 0 Z " fill="#AE8F63" transform="translate(260,166)"/>
<path d="M0 0 C0.66 0 1.32 0 2 0 C2.36923077 7.38461538 2.36923077 7.38461538 0.5 10.5 C0.005 10.995 -0.49 11.49 -1 12 C-4.25 11.875 -4.25 11.875 -8 11 C-12 6.07692308 -12 6.07692308 -12 4 C-7.44615385 3.63076923 -7.44615385 3.63076923 -5.1875 5.5 C-4.795625 5.995 -4.40375 6.49 -4 7 C-3.525625 6.030625 -3.05125 5.06125 -2.5625 4.0625 C-1 1 -1 1 0 0 Z " fill="#A78453" transform="translate(311,305)"/>
<path d="M0 0 C2.44664173 2.44664173 2.347875 3.41051785 2.6328125 6.7890625 C2.71660156 7.73007812 2.80039063 8.67109375 2.88671875 9.640625 C2.96535156 10.62546875 3.04398438 11.6103125 3.125 12.625 C3.21136719 13.61757813 3.29773438 14.61015625 3.38671875 15.6328125 C3.5991844 18.08797111 3.80325544 20.54353974 4 23 C4.91523438 23.26554687 5.83046875 23.53109375 6.7734375 23.8046875 C8.55621094 24.33449219 8.55621094 24.33449219 10.375 24.875 C11.55835938 25.22304688 12.74171875 25.57109375 13.9609375 25.9296875 C17 27 17 27 19 29 C13.39 28.67 7.78 28.34 2 28 C0.69710734 18.55402821 -0.32569146 9.55361617 0 0 Z " fill="#D7DCE3" transform="translate(222,324)"/>
<path d="M0 0 C0.99 0.33 1.98 0.66 3 1 C4.299375 0.938125 5.59875 0.87625 6.9375 0.8125 C10.24746054 0.74544739 10.76990904 0.81592724 13.5 3 C14.2425 3.99 14.2425 3.99 15 5 C9.92672705 7.58840457 6.70502406 8.75539202 1 7 C-0.9375 4.4375 -0.9375 4.4375 -2 2 C-1.34 1.34 -0.68 0.68 0 0 Z " fill="#A37F4D" transform="translate(269,389)"/>
<path d="M0 0 C0.99 0 1.98 0 3 0 C3 7.26 3 14.52 3 22 C9.61430493 21.56873679 9.61430493 21.56873679 13 19 C12.67 20.32 12.34 21.64 12 23 C7.71 23 3.42 23 -1 23 C-0.67 15.41 -0.34 7.82 0 0 Z " fill="#B3956B" transform="translate(162,167)"/>
<path d="M0 0 C0.33 0 0.66 0 1 0 C1.08040527 0.65597168 1.16081055 1.31194336 1.24365234 1.98779297 C1.61193256 4.95137173 1.99329573 7.91312165 2.375 10.875 C2.50132812 11.90753906 2.62765625 12.94007813 2.7578125 14.00390625 C2.88671875 14.99003906 3.015625 15.97617188 3.1484375 16.9921875 C3.26364746 17.90339355 3.37885742 18.81459961 3.49755859 19.75341797 C3.83158365 22.18873688 3.83158365 22.18873688 6 24 C4.02 24 2.04 24 0 24 C-0.06058594 23.00097656 -0.12117188 22.00195312 -0.18359375 20.97265625 C-0.26738281 19.68230469 -0.35117187 18.39195312 -0.4375 17.0625 C-0.51871094 15.77472656 -0.59992188 14.48695313 -0.68359375 13.16015625 C-0.64919188 10.13976043 -0.64919188 10.13976043 -2 9 C-3.65 12.63 -5.3 16.26 -7 20 C-8.12055703 16.63832891 -7.97585489 16.29170668 -6.6015625 13.2421875 C-6.28703125 12.53449219 -5.9725 11.82679688 -5.6484375 11.09765625 C-5.31070312 10.36417969 -4.97296875 9.63070312 -4.625 8.875 C-4.295 8.13378906 -3.965 7.39257812 -3.625 6.62890625 C-1.16998027 1.16998027 -1.16998027 1.16998027 0 0 Z " fill="#A4804E" transform="translate(279,166)"/>
<path d="M0 0 C2.27457187 0.32627055 3.99419324 0.99873299 5.90625 2.2734375 C4.15625 6.1484375 4.15625 6.1484375 1.90625 7.2734375 C-2.96133823 7.71594552 -5.87764753 6.68263891 -10.09375 4.2734375 C-7.0613989 0.2303027 -4.78791349 -0.23224954 0 0 Z " fill="#A4804E" transform="translate(226.09375,389.7265625)"/>
<path d="M0 0 C8.57142857 0.71428571 8.57142857 0.71428571 12 4 C11.67 4.99 11.34 5.98 11 7 C6.50985524 8.07763474 4.66989054 8.37757467 0.5625 6.0625 C-0.283125 5.381875 -1.12875 4.70125 -2 4 C-1.34 2.68 -0.68 1.36 0 0 Z " fill="#A68353" transform="translate(207,380)"/>
<path d="M0 0 C-0.33 0.99 -0.66 1.98 -1 3 C-1.61875 2.814375 -2.2375 2.62875 -2.875 2.4375 C-5.04160178 1.76313824 -5.04160178 1.76313824 -7 3 C-6.39811941 8.50290823 -3.72359343 10.44305388 0.28515625 13.9375 C2 16 2 16 2.30859375 18.63671875 C2 21 2 21 1 22.8125 C-2.23988962 24.73618446 -5.2825819 24.18282384 -9 24 C-9.33 22.68 -9.66 21.36 -10 20 C-9.34 20.66 -8.68 21.32 -8 22 C-4.91652174 22.16681109 -4.91652174 22.16681109 -2 22 C-1.09560881 19.7307398 -1.09560881 19.7307398 -1 17 C-3.14786163 14.46922042 -5.55718969 12.51435386 -8.09375 10.37890625 C-10 8 -10 8 -9.96875 4.83984375 C-8.16918785 -0.43548562 -4.96899127 -0.22084406 0 0 Z " fill="#A98758" transform="translate(235,258)"/>
<path d="M0 0 C0.33 0 0.66 0 1 0 C1.28994872 9.13338455 0.1741788 17.96301675 -1 27 C-5.62 27.33 -10.24 27.66 -15 28 C-10.59414535 24.69560901 -8.23022392 24.13321518 -3 23 C-2.94465088 22.37432129 -2.88930176 21.74864258 -2.83227539 21.10400391 C-2.57986101 18.27727803 -2.32125807 15.45115193 -2.0625 12.625 C-1.97548828 11.64015625 -1.88847656 10.6553125 -1.79882812 9.640625 C-1.71181641 8.69960938 -1.62480469 7.75859375 -1.53515625 6.7890625 C-1.456604 5.91975098 -1.37805176 5.05043945 -1.29711914 4.15478516 C-1 2 -1 2 0 0 Z " fill="#E6EAEE" transform="translate(274,324)"/>
<path d="M0 0 C0.66 0 1.32 0 2 0 C2.31837652 7.80022477 1.10105518 15.29261376 0 23 C-6.6 23.33 -13.2 23.66 -20 24 C-15.47237835 19.47237835 -8.00194085 20.4159761 -2 20 C-1.34 13.4 -0.68 6.8 0 0 Z " fill="#B4BECB" transform="translate(276,332)"/>
<path d="M0 0 C2.96844435 -0.35338623 5.15598218 -0.5417682 7.734375 1.11328125 C9.20348819 2.35503168 10.60704814 3.67337918 12 5 C11.67 5.99 11.34 6.98 11 8 C8.03155565 8.35338623 5.84401782 8.5417682 3.265625 6.88671875 C1.79651181 5.64496832 0.39295186 4.32662082 -1 3 C-0.67 2.01 -0.34 1.02 0 0 Z " fill="#A4804E" transform="translate(196,368)"/>
<path d="M0 0 C2.62208654 0.26220865 3.80848326 0.82216303 5.75 2.625 C7.43754802 5.83134123 7.20576047 8.43348514 7 12 C3.20167325 11.45738189 1.30727513 10.04889927 -1 7 C-1.3125 3.8125 -1.3125 3.8125 -1 1 C-0.67 0.67 -0.34 0.34 0 0 Z " fill="#A4804F" transform="translate(227,377)"/>
<path d="M0 0 C3.875 1.75 3.875 1.75 5 4 C5.12005453 5.49649362 5.17531451 6.99874793 5.1875 8.5 C5.20167969 9.2940625 5.21585938 10.088125 5.23046875 10.90625 C5 13 5 13 3 15 C1.62437146 13.71034824 0.29233607 12.37310707 -1 11 C-1 10.34 -1 9.68 -1 9 C-1.020625 7.845 -1.04125 6.69 -1.0625 5.5 C-1 2 -1 2 0 0 Z " fill="#A37E4C" transform="translate(217,369)"/>
<path d="M0 0 C-0.33 0.99 -0.66 1.98 -1 3 C-1.068991 5.06145107 -1.08467727 7.12501401 -1.0625 9.1875 C-1.05347656 10.27417969 -1.04445312 11.36085938 -1.03515625 12.48046875 C-1.02355469 13.31191406 -1.01195312 14.14335937 -1 15 C0.65 15.33 2.3 15.66 4 16 C4 16.33 4 16.66 4 17 C1.25 17.3125 1.25 17.3125 -2 17 C-4.66348847 14.82715414 -5.81406947 13.19288012 -6.34765625 9.76953125 C-6.57318584 3.75867746 -6.57318584 3.75867746 -4.66015625 1.2265625 C-3 0 -3 0 0 0 Z " fill="#1E3C63" transform="translate(257,411)"/>
<path d="M0 0 C0.99 0 1.98 0 3 0 C3 2.64 3 5.28 3 8 C3.99 8.33 4.98 8.66 6 9 C5.34 9 4.68 9 4 9 C4 11.31 4 13.62 4 16 C4.66 16.33 5.32 16.66 6 17 C3.36 17 0.72 17 -2 17 C-1.67 16.34 -1.34 15.68 -1 15 C-0.76827173 12.45384991 -0.58105471 9.92603775 -0.4375 7.375 C-0.39431641 6.66859375 -0.35113281 5.9621875 -0.30664062 5.234375 C-0.20055249 3.48981463 -0.09977111 1.74493303 0 0 Z " fill="#1A385F" transform="translate(212,411)"/>
<path d="M0 0 C2 2 2 2 2.4375 4.8125 C1.85857731 9.03036531 0.28658443 10.40130534 -3 13 C-3.99 13 -4.98 13 -6 13 C-6.46557346 9.81858133 -6.50963377 7.74656877 -4.6640625 5.04296875 C-3.15741976 3.3064392 -1.62063536 1.630282 0 0 Z " fill="#A37F4C" transform="translate(272,376)"/>
<path d="M0 0 C0 4 0 4 -2.125 6.25 C-5.40824943 8.24849965 -7.22718603 8.35095944 -11 8 C-11 6.68 -11 5.36 -11 4 C-7.35428203 0.947771 -4.79142225 -0.56369674 0 0 Z " fill="#A37F4C" transform="translate(304,368)"/>
<path d="M0 0 C2.625 -0.4375 2.625 -0.4375 6 0 C8.33122122 2.0949488 10.17328621 4.46073827 12 7 C11.67 7.66 11.34 8.32 11 9 C6.7837853 8.75675684 4.64516511 8.62862242 1.5625 5.625 C0 3 0 3 0 0 Z " fill="#A68251" transform="translate(188,354)"/>
<path d="M0 0 C-0.47386028 4.26474248 -2.77031321 6.35752899 -6 9 C-8.8125 9.3125 -8.8125 9.3125 -11 9 C-11 5.06368636 -9.57142871 3.87394974 -7 1 C-4.53721199 -0.231394 -2.7204945 -0.07159196 0 0 Z " fill="#A58150" transform="translate(312,354)"/>
<path d="M0 0 C3.875 1.75 3.875 1.75 5 4 C5.23333333 10.53333333 5.23333333 10.53333333 4 13 C0.125 11.25 0.125 11.25 -1 9 C-1.18704404 6.30986661 -1.08581391 3.70313823 -1 1 C-0.67 0.67 -0.34 0.34 0 0 Z " fill="#A78454" transform="translate(296,348)"/>
<path d="M0 0 C0.63019694 8.19256018 0.63019694 8.19256018 -2 11.5625 C-2.66 12.036875 -3.32 12.51125 -4 13 C-6.32749345 9.50875983 -6.50299316 8.10777749 -6 4 C-2.84210526 0 -2.84210526 0 0 0 Z " fill="#A68251" transform="translate(205,348)"/>
<path d="M0 0 C0.36630156 3.93774177 0.30233203 5.56539771 -2 8.875 C-2.66 9.57625 -3.32 10.2775 -4 11 C-5.32 10.34 -6.64 9.68 -8 9 C-7.5504955 7.68445015 -7.09010284 6.37261642 -6.625 5.0625 C-6.36976563 4.33160156 -6.11453125 3.60070312 -5.8515625 2.84765625 C-4.47204397 -0.14551928 -3.21949519 0 0 0 Z " fill="#A98858" transform="translate(201,336)"/>
<path d="M0 0 C1.5 1.0625 1.5 1.0625 3 3 C3.38991688 7.36706908 3.46324069 9.30513897 1 13 C0.01 12.67 -0.98 12.34 -2 12 C-2.05422947 10.5629191 -2.09289723 9.12524538 -2.125 7.6875 C-2.14820313 6.88699219 -2.17140625 6.08648437 -2.1953125 5.26171875 C-2 3 -2 3 0 0 Z " fill="#A17C49" transform="translate(290,359)"/>
<path d="M0 0 C0.33 0 0.66 0 1 0 C1.88164975 6.17154827 2.23586714 11.84812803 1 18 C0 19 0 19 -2.72265625 19.09765625 C-3.82480469 19.08605469 -4.92695313 19.07445312 -6.0625 19.0625 C-7.16722656 19.05347656 -8.27195312 19.04445313 -9.41015625 19.03515625 C-10.69212891 19.01775391 -10.69212891 19.01775391 -12 19 C-11.67 18.34 -11.34 17.68 -11 17 C-7.7 17 -4.4 17 -1 17 C-0.67 11.39 -0.34 5.78 0 0 Z " fill="#3C5678" transform="translate(274,334)"/>
<path d="M0 0 C-0.75 7.75 -0.75 7.75 -3 10 C-4.32 10 -5.64 10 -7 10 C-6.39169139 3.55192878 -6.39169139 3.55192878 -4.625 1.0625 C-3 0 -3 0 0 0 Z " fill="#A4804E" transform="translate(316,322)"/>
<path d="M0 0 C3.26460973 1.80412643 4.88929795 2.83394693 7 6 C7.125 8.6875 7.125 8.6875 7 11 C4.625 10.75 4.625 10.75 2 10 C-0.42363044 6.88390372 -0.17392151 3.82627315 0 0 Z " fill="#A37F4C" transform="translate(184,321)"/>
<path d="M0 0 C1.98 0 3.96 0 6 0 C5.67 0.66 5.34 1.32 5 2 C4.84777027 3.66565749 4.75082785 5.33656496 4.68359375 7.0078125 C4.64169922 7.99394531 4.59980469 8.98007813 4.55664062 9.99609375 C4.51732422 11.02863281 4.47800781 12.06117188 4.4375 13.125 C4.39431641 14.16527344 4.35113281 15.20554688 4.30664062 16.27734375 C4.2003712 18.85142528 4.09833417 21.42560508 4 24 C3.67 24 3.34 24 3 24 C1.7324679 18.70805349 1.63868832 13.38675774 1.39453125 7.97460938 C1.27930218 3.85458931 1.27930218 3.85458931 0 0 Z " fill="#B99D76" transform="translate(330,166)"/>
<path d="M0 0 C0.33 0 0.66 0 1 0 C1.45374191 5.67177385 0.65083143 8.5975268 -3 13 C-3.66 13 -4.32 13 -5 13 C-5.59981372 7.00186278 -5.59981372 7.00186278 -3.921875 4.19921875 C-2.5625 2.5625 -2.5625 2.5625 0 0 Z " fill="#A78454" transform="translate(199,293)"/>
<path d="M0 0 C7.17861073 2.3372221 13.4526816 5.26275072 20 9 C19.67 9.66 19.34 10.32 19 11 C14.31855901 10.11432198 11.36011183 9.41847606 8 6 C6.62604325 5.09103435 5.22900208 4.21612874 3.8125 3.375 C2.52556107 2.60979307 1.24942675 1.82503714 0 1 C0 0.67 0 0.34 0 0 Z " fill="#BA9F79" transform="translate(217,382)"/>
<path d="M0 0 C2.19057558 1.73420566 2.94050823 2.57663997 3.3359375 5.390625 C3 8 3 8 1.3203125 9.87890625 C0.59585937 10.43449219 -0.12859375 10.99007813 -0.875 11.5625 C-3.86569261 13.88323459 -5.37804113 15.60402363 -7 19 C-9.125 19.75 -9.125 19.75 -11 20 C-11 18.68 -11 17.36 -11 16 C-9.33333333 15 -7.66666667 14 -6 13 C-2.34596402 9.03218254 -0.40063281 5.47531507 0 0 Z " fill="#B89C75" transform="translate(293,363)"/>
<path d="M0 0 C-0.60830861 6.44807122 -0.60830861 6.44807122 -2.375 8.9375 C-4 10 -4 10 -7 10 C-6.51020408 3.51020408 -6.51020408 3.51020408 -4.0625 1.0625 C-2 0 -2 0 0 0 Z " fill="#A58250" transform="translate(199,322)"/>
<path d="M0 0 C0.33 0 0.66 0 1 0 C1.66 2.31 2.32 4.62 3 7 C2.67 7.33 2.34 7.66 2 8 C1.76346477 10.52596259 1.57826308 13.03107207 1.4375 15.5625 C1.39431641 16.27341797 1.35113281 16.98433594 1.30664062 17.71679688 C1.20028223 19.47761912 1.09961154 21.2387832 1 23 C-0.65 23 -2.3 23 -4 23 C-3.34 22.67 -2.68 22.34 -2 22 C-1.53044799 19.77187153 -1.53044799 19.77187153 -1.3671875 17.08984375 C-1.28339844 16.10048828 -1.19960937 15.11113281 -1.11328125 14.09179688 C-1.03464844 13.05087891 -0.95601563 12.00996094 -0.875 10.9375 C-0.74544922 9.37032227 -0.74544922 9.37032227 -0.61328125 7.77148438 C-0.40041023 5.18155359 -0.19638621 2.5912245 0 0 Z " fill="#BBA17C" transform="translate(117,213)"/>
<path d="M0 0 C1.85182095 2.77773142 2.3341681 3.88383445 2.8515625 7.01171875 C2.98046875 7.76904297 3.109375 8.52636719 3.2421875 9.30664062 C3.36851562 10.09232422 3.49484375 10.87800781 3.625 11.6875 C3.7590625 12.48478516 3.893125 13.28207031 4.03125 14.10351562 C4.3606146 16.0679402 4.68116313 18.03383927 5 20 C3.35 20 1.7 20 0 20 C0 13.4 0 6.8 0 0 Z " fill="#A88657" transform="translate(136,216)"/>
<path d="M0 0 C4.75 0.75 4.75 0.75 7 3 C7.125 6.125 7.125 6.125 7 9 C4.28902773 8.62607279 3.17999533 8.18642373 1.25 6.1875 C0 4 0 4 0 0 Z " fill="#A4804F" transform="translate(301,323)"/>
<path d="M0 0 C4.22797927 2.81865285 4.22797927 2.81865285 6 5 C6.53855713 7.85646479 6.29847264 10.06501905 6 13 C5.34 13 4.68 13 4 13 C-0.59225513 4.738041 -0.59225513 4.738041 0 0 Z " fill="#A68352" transform="translate(300,293)"/>
<path d="M0 0 C2.18975773 3.28463659 2.99806563 6.20696275 4 10 C1.36 10 -1.28 10 -4 10 C-3.52449439 8.51965236 -3.04448784 7.04074979 -2.5625 5.5625 C-2.29566406 4.73878906 -2.02882812 3.91507813 -1.75390625 3.06640625 C-1 1 -1 1 0 0 Z " fill="#F6F3EE" transform="translate(157,217)"/>
<path d="M0 0 C0.33 0 0.66 0 1 0 C1.33 2.97 1.66 5.94 2 9 C-1.36914062 10.02539062 -1.36914062 10.02539062 -4.73828125 11.05078125 C-7.11364431 12.04769528 -8.22763524 13.18641745 -10 15 C-12.1875 14.6875 -12.1875 14.6875 -14 14 C-14 13.34 -14 12.68 -14 12 C-12.42032193 11.32471777 -10.83608097 10.66010306 -9.25 10 C-8.36828125 9.62875 -7.4865625 9.2575 -6.578125 8.875 C-4 8 -4 8 0 8 C0 5.36 0 2.72 0 0 Z " fill="#475F7F" transform="translate(270,338)"/>
<path d="M0 0 C0.25 7.625 0.25 7.625 -2 11 C-2.99 11 -3.98 11 -5 11 C-5.36637589 4.64948454 -5.36637589 4.64948454 -3.625 1.5625 C-2 0 -2 0 0 0 Z " fill="#A17C48" transform="translate(313,305)"/>
<path d="M0 0 C0.66 0.33 1.32 0.66 2 1 C2.6328125 3.06640625 2.6328125 3.06640625 3.125 5.5625 C3.29257813 6.38878906 3.46015625 7.21507812 3.6328125 8.06640625 C3.75398437 8.70449219 3.87515625 9.34257812 4 10 C1.69 10 -0.62 10 -3 10 C-2.39009109 6.44219804 -1.4216319 3.3171411 0 0 Z " fill="#F7F5F1" transform="translate(213,217)"/>
<path d="M0 0 C0.66 0.33 1.32 0.66 2 1 C2.6328125 3.06640625 2.6328125 3.06640625 3.125 5.5625 C3.29257813 6.38878906 3.46015625 7.21507812 3.6328125 8.06640625 C3.75398437 8.70449219 3.87515625 9.34257812 4 10 C1.69 10 -0.62 10 -3 10 C-2.39009109 6.44219804 -1.4216319 3.3171411 0 0 Z " fill="#F7F5F1" transform="translate(190,171)"/>
<path d="M0 0 C3.70231632 1.85115816 5.51767858 3.03535716 7.375 6.75 C7.58125 7.4925 7.7875 8.235 8 9 C7.67 9 7.34 9 7 9 C6.67 11.64 6.34 14.28 6 17 C5.67 17 5.34 17 5 17 C4.96261719 16.24074219 4.92523438 15.48148438 4.88671875 14.69921875 C4.82097656 13.70535156 4.75523437 12.71148437 4.6875 11.6875 C4.62949219 10.70136719 4.57148438 9.71523437 4.51171875 8.69921875 C3.94398329 5.70452252 3.45652424 4.74647994 1 3 C-2.86146303 2.17254364 -5.22941703 1.74313901 -9 3 C-9.33 2.34 -9.66 1.68 -10 1 C-6.78268449 -0.60865775 -3.4892388 -0.46696133 0 0 Z " fill="#BBA17C" transform="translate(209,120)"/>
<path d="M0 0 C2.33817582 3.50726374 2.61938462 6.48969165 3.0625 10.5625 C3.4731575 15.42783869 3.4731575 15.42783869 5 20 C3.35 20 1.7 20 0 20 C0 13.4 0 6.8 0 0 Z " fill="#A4804E" transform="translate(310,262)"/>
<path d="M0 0 C6.6 0 13.2 0 20 0 C19.67 0.99 19.34 1.98 19 3 C18.35933594 2.91621094 17.71867187 2.83242188 17.05859375 2.74609375 C8.33164188 1.67195979 8.33164188 1.67195979 0 4 C0 2.68 0 1.36 0 0 Z " fill="#C8B395" transform="translate(241,258)"/>
<path d="M0 0 C2.40804568 2.40804568 3.00768759 4.42203775 4.125 7.625 C4.47820312 8.62789062 4.83140625 9.63078125 5.1953125 10.6640625 C5.46085938 11.43492187 5.72640625 12.20578125 6 13 C5.01 13 4.02 13 3 13 C2.01 10.69 1.02 8.38 0 6 C-0.66 7.65 -1.32 9.3 -2 11 C-2.66 11 -3.32 11 -4 11 C-3.52269162 9.5410574 -3.04308958 8.08286504 -2.5625 6.625 C-2.29566406 5.81289062 -2.02882812 5.00078125 -1.75390625 4.1640625 C-1 2 -1 2 0 0 Z " fill="#AE8F62" transform="translate(157,212)"/>
<path d="M0 0 C2.33817582 3.50726374 2.61938462 6.48969165 3.0625 10.5625 C3.4731575 15.42783869 3.4731575 15.42783869 5 20 C3.35 20 1.7 20 0 20 C0 13.4 0 6.8 0 0 Z " fill="#A4804E" transform="translate(303,216)"/>
<path d="M0 0 C6.6 0 13.2 0 20 0 C19.67 0.99 19.34 1.98 19 3 C18.35933594 2.91621094 17.71867187 2.83242187 17.05859375 2.74609375 C8.33164188 1.67195979 8.33164188 1.67195979 0 4 C0 2.68 0 1.36 0 0 Z " fill="#C8B395" transform="translate(340,166)"/>
<path d="M0 0 C2.91024202 2.50058918 4.16791164 5.19655377 5.6875 8.6875 C6.12449219 9.68136719 6.56148437 10.67523438 7.01171875 11.69921875 C7.33785156 12.45847656 7.66398438 13.21773437 8 14 C6.02 14 4.04 14 2 14 C1.33333333 9.33333333 0.66666667 4.66666667 0 0 Z " fill="#AA8859" transform="translate(217,222)"/>
<path d="M0 0 C2.91024202 2.50058918 4.16791164 5.19655377 5.6875 8.6875 C6.12449219 9.68136719 6.56148437 10.67523438 7.01171875 11.69921875 C7.33785156 12.45847656 7.66398438 13.21773437 8 14 C6.02 14 4.04 14 2 14 C1.33333333 9.33333333 0.66666667 4.66666667 0 0 Z " fill="#AA8859" transform="translate(194,176)"/>
<path d="M0 0 C4.04340278 1.34780093 4.41598158 3.06925243 6.3125 6.8125 C6.86550781 7.87082031 7.41851562 8.92914063 7.98828125 10.01953125 C9 13 9 13 8.16796875 15.38671875 C7.58982422 16.18529297 7.58982422 16.18529297 7 17 C5.82866942 14.54379149 4.66278278 12.08525083 3.5 9.625 C3.16613281 8.92632812 2.83226562 8.22765625 2.48828125 7.5078125 C0 2.2265625 0 2.2265625 0 0 Z " fill="#A98758" transform="translate(262,173)"/>
<path d="M0 0 C0.99 0.33 1.98 0.66 3 1 C2.67 7.93 2.34 14.86 2 22 C0.02 20.35 -1.96 18.7 -4 17 C-3.505 15.515 -3.505 15.515 -3 14 C-2.01 14.99 -1.02 15.98 0 17 C0 11.39 0 5.78 0 0 Z " fill="#A17C48" transform="translate(193,213)"/>
<path d="M0 0 C0.99 0.33 1.98 0.66 3 1 C3 1.66 3 2.32 3 3 C2.14535156 3.26554687 1.29070312 3.53109375 0.41015625 3.8046875 C-0.69457031 4.15789062 -1.79929687 4.51109375 -2.9375 4.875 C-4.03964844 5.22304688 -5.14179688 5.57109375 -6.27734375 5.9296875 C-9.12878804 6.70024295 -9.12878804 6.70024295 -10 9 C-12.475 8.01 -12.475 8.01 -15 7 C-12.37575342 5.25050228 -10.44272784 4.34610019 -7.5 3.375 C-6.33984375 2.98441406 -6.33984375 2.98441406 -5.15625 2.5859375 C-3 2 -3 2 0 2 C0 1.34 0 0.68 0 0 Z " fill="#B4966D" transform="translate(266,389)"/>
<path d="M0 0 C0.33 0 0.66 0 1 0 C1.28875 1.11375 1.5775 2.2275 1.875 3.375 C2.69241329 7.00291092 2.69241329 7.00291092 5 9 C5.45375 9.66 5.9075 10.32 6.375 11 C8.1065855 13.13118215 9.49023822 13.96147788 12 15 C11.01 15.33 10.02 15.66 9 16 C3.51674086 12.80974014 0.4584427 9.87888473 -2 4 C-1.25 1.5625 -1.25 1.5625 0 0 Z " fill="#C1A987" transform="translate(206,364)"/>
<path d="M0 0 C0.78375 0.04125 1.5675 0.0825 2.375 0.125 C1.30098892 3.04017292 0.59689824 4.90310176 -1.625 7.125 C-2.945 7.125 -4.265 7.125 -5.625 7.125 C-4.53409091 0.21590909 -4.53409091 0.21590909 0 0 Z " fill="#A27E4B" transform="translate(198.625,308.875)"/>
<path d="M0 0 C0.33 0 0.66 0 1 0 C0.67 3.3 0.34 6.6 0 10 C-0.66 9.67 -1.32 9.34 -2 9 C-3.65 12.63 -5.3 16.26 -7 20 C-8.12055703 16.63832891 -7.97585489 16.29170668 -6.6015625 13.2421875 C-6.28703125 12.53449219 -5.9725 11.82679688 -5.6484375 11.09765625 C-5.31070312 10.36417969 -4.97296875 9.63070312 -4.625 8.875 C-4.295 8.13378906 -3.965 7.39257812 -3.625 6.62890625 C-1.16998027 1.16998027 -1.16998027 1.16998027 0 0 Z " fill="#B4976E" transform="translate(279,166)"/>
<path d="M0 0 C0.66 0.33 1.32 0.66 2 1 C1.67 2.32 1.34 3.64 1 5 C0.34 5 -0.32 5 -1 5 C-1.33 4.34 -1.66 3.68 -2 3 C-6.64586892 3.48484276 -6.64586892 3.48484276 -11 5 C-8.47246231 -0.59669059 -5.96019827 -0.21286422 0 0 Z " fill="#304B6F" transform="translate(243,410)"/>
<path d="M0 0 C3.125 1.6875 3.125 1.6875 5 3 C4.67 3.66 4.34 4.32 4 5 C3.34 5 2.68 5 2 5 C2 4.34 2 3.68 2 3 C1.25234375 2.80664062 0.5046875 2.61328125 -0.265625 2.4140625 C-1.74289063 2.02347656 -1.74289063 2.02347656 -3.25 1.625 C-4.22453125 1.36976563 -5.1990625 1.11453125 -6.203125 0.8515625 C-8.65837303 0.10401491 -10.75617405 -0.77123817 -13 -2 C-8.33569985 -3.55476672 -4.50012317 -1.65530008 0 0 Z " fill="#3C5577" transform="translate(239,349)"/>
<path d="M0 0 C0 0.66 0 1.32 0 2 C-0.83144531 2.40992188 -1.66289062 2.81984375 -2.51953125 3.2421875 C-4.14955078 4.05042969 -4.14955078 4.05042969 -5.8125 4.875 C-6.89144531 5.40867187 -7.97039062 5.94234375 -9.08203125 6.4921875 C-12.07838265 7.97221139 -12.07838265 7.97221139 -15 10 C-15 9.01 -15 8.02 -15 7 C-12.91796875 5.4296875 -12.91796875 5.4296875 -10.1875 3.875 C-9.29417969 3.35679687 -8.40085937 2.83859375 -7.48046875 2.3046875 C-4.94637947 0.97179645 -2.89393281 0 0 0 Z " fill="#2F4B6F" transform="translate(265,319)"/>
<path d="M0 0 C4.29 0 8.58 0 13 0 C13 1.65 13 3.3 13 5 C12.34 4.34 11.68 3.68 11 3 C8.42938689 2.35232207 8.42938689 2.35232207 6 2 C6 3.98 6 5.96 6 8 C5.67 8 5.34 8 5 8 C5 5.69 5 3.38 5 1 C3.68 1.33 2.36 1.66 1 2 C0.67 1.34 0.34 0.68 0 0 Z " fill="#415A7B" transform="translate(273,410)"/>
<path d="M0 0 C2.31 0 4.62 0 7 0 C6.60167969 0.44730469 6.20335937 0.89460938 5.79296875 1.35546875 C2.82015875 4.74779939 0.1717806 8.01840224 -2 12 C-2.99 11.67 -3.98 11.34 -5 11 C-4.34 11 -3.68 11 -3 11 C-1.38935371 7.34920174 -0.55105909 3.9492568 0 0 Z " fill="#BA9E78" transform="translate(214,258)"/>
<path d="M0 0 C0.66 0.33 1.32 0.66 2 1 C2.45402627 9.92918332 2.45402627 9.92918332 -1 14 C-3.1875 14.8125 -3.1875 14.8125 -5 15 C-4.360625 14.195625 -3.72125 13.39125 -3.0625 12.5625 C-0.40147674 8.64148693 -0.20593653 4.63357199 0 0 Z " fill="#A58250" transform="translate(215,128)"/>
<path d="M0 0 C1.43793392 0.31049726 2.8753318 0.6234776 4.3125 0.9375 C5.11300781 1.11152344 5.91351563 1.28554688 6.73828125 1.46484375 C9 2 9 2 12 3 C12 4.32 12 5.64 12 7 C10.68 7.33 9.36 7.66 8 8 C8 7.01 8 6.02 8 5 C5.36 3.68 2.72 2.36 0 1 C0 0.67 0 0.34 0 0 Z " fill="#AF8F63" transform="translate(236,392)"/>
<path d="M0 0 C0.99 0 1.98 0 3 0 C2.67 8.91 2.34 17.82 2 27 C1.67 27 1.34 27 1 27 C0.67 18.09 0.34 9.18 0 0 Z " fill="#15345C" transform="translate(247,328)"/>
<path d="M0 0 C1.32 0.33 2.64 0.66 4 1 C4 2.65 4 4.3 4 6 C2.68 6.33 1.36 6.66 0 7 C0 4.69 0 2.38 0 0 Z " fill="#F3F4F6" transform="translate(216,412)"/>
<path d="M0 0 C3.78710721 0.32931367 6.44059928 1.63381142 9.875 3.25 C9.875 3.58 9.875 3.91 9.875 4.25 C8.45749437 4.13490339 7.04098831 4.00746342 5.625 3.875 C4.83609375 3.80539062 4.0471875 3.73578125 3.234375 3.6640625 C0.789123 3.23492887 -0.97336903 2.46399362 -3.125 1.25 C-2.125 0.25 -2.125 0.25 0 0 Z " fill="#A68352" transform="translate(250.125,395.75)"/>
<path d="M0 0 C-1 2 -1 2 -3.06640625 2.8515625 C-4.30197266 3.23441406 -4.30197266 3.23441406 -5.5625 3.625 C-6.38878906 3.88539063 -7.21507812 4.14578125 -8.06640625 4.4140625 C-8.70449219 4.60742188 -9.34257812 4.80078125 -10 5 C-9.625 2.5625 -9.625 2.5625 -9 0 C-5.93109813 -1.53445094 -3.29905734 -0.54984289 0 0 Z " fill="#244066" transform="translate(262,352)"/>
<path d="M0 0 C0.66 0 1.32 0 2 0 C2.66 1.98 3.32 3.96 4 6 C3.01 6.495 3.01 6.495 2 7 C1.34444881 9.52733235 1.34444881 9.52733235 1 12 C0.67 12 0.34 12 0 12 C0 8.04 0 4.08 0 0 Z " fill="#AC8B5E" transform="translate(291,259)"/>
<path d="M0 0 C-0.33 0.99 -0.66 1.98 -1 3 C-1.61875 2.814375 -2.2375 2.62875 -2.875 2.4375 C-5.04160178 1.76313824 -5.04160178 1.76313824 -7 3 C-7 4.65 -7 6.3 -7 8 C-7.99 8 -8.98 8 -10 8 C-9.6875 5.125 -9.6875 5.125 -9 2 C-5.5647952 -0.29013653 -4.014669 -0.17842973 0 0 Z " fill="#B19368" transform="translate(235,258)"/>
<path d="M0 0 C0.66 0 1.32 0 2 0 C2.66 1.98 3.32 3.96 4 6 C3.01 6.495 3.01 6.495 2 7 C1.34444881 9.52733235 1.34444881 9.52733235 1 12 C0.67 12 0.34 12 0 12 C0 8.04 0 4.08 0 0 Z " fill="#AC8B5E" transform="translate(284,213)"/>
<path d="M0 0 C2.46800047 1.15173355 4.04783565 2.04783565 6 4 C8.20250992 4.46006346 8.20250992 4.46006346 10.625 4.625 C11.44226563 4.69976562 12.25953125 4.77453125 13.1015625 4.8515625 C13.72804687 4.90054688 14.35453125 4.94953125 15 5 C15 5.33 15 5.66 15 6 C6.04347826 6.62608696 6.04347826 6.62608696 1.875 4.125 C0 2 0 2 0 0 Z " fill="#B19267" transform="translate(232,230)"/>
<path d="M0 0 C2.46800047 1.15173355 4.04783565 2.04783565 6 4 C8.20250992 4.46006346 8.20250992 4.46006346 10.625 4.625 C11.44226563 4.69976562 12.25953125 4.77453125 13.1015625 4.8515625 C13.72804688 4.90054688 14.35453125 4.94953125 15 5 C15 5.33 15 5.66 15 6 C6.04347826 6.62608696 6.04347826 6.62608696 1.875 4.125 C0 2 0 2 0 0 Z " fill="#B19267" transform="translate(289,138)"/>
<path d="M0 0 C0.66 0.33 1.32 0.66 2 1 C1.2884375 2.0828125 1.2884375 2.0828125 0.5625 3.1875 C-0.94152903 5.89475226 -1.56599182 7.96194275 -2 11 C-2.66 11 -3.32 11 -4 11 C-4.36630156 7.06225823 -4.30233203 5.43460229 -2 2.125 C-1.34 1.42375 -0.68 0.7225 0 0 Z " fill="#A37F4D" transform="translate(198,122)"/>
<path d="M0 0 C1.77007714 -0.08114106 3.54122098 -0.13925505 5.3125 -0.1875 C6.29863281 -0.22230469 7.28476563 -0.25710937 8.30078125 -0.29296875 C11 0 11 0 12.85546875 1.51171875 C13.23316406 2.00285156 13.61085937 2.49398437 14 3 C10.95438718 3 8.30174598 2.5626816 5.3125 2 C4.31863281 1.814375 3.32476562 1.62875 2.30078125 1.4375 C1.54152344 1.293125 0.78226563 1.14875 0 1 C0 0.67 0 0.34 0 0 Z " fill="#C8B395" transform="translate(138,166)"/>
<path d="M0 0 C1.17539996 0.92652701 2.34010577 1.86663387 3.5 2.8125 C4.1496875 3.33457031 4.799375 3.85664063 5.46875 4.39453125 C7 6 7 6 7 9 C5.2925002 7.71937515 3.62626404 6.38232443 2 5 C2 4.34 2 3.68 2 3 C1.34 3 0.68 3 0 3 C0 2.01 0 1.02 0 0 Z " fill="#A27E4B" transform="translate(339,214)"/>
<path d="M0 0 C1.5 1.1875 1.5 1.1875 3 3 C3.1875 5.6875 3.1875 5.6875 3 8 C2.01 8.33 1.02 8.66 0 9 C-1.15941038 5.52176885 -0.70820884 3.54104422 0 0 Z " fill="#CDB99E" transform="translate(293,363)"/>
<path d="M0 0 C0.391875 0.61875 0.78375 1.2375 1.1875 1.875 C3.27717491 4.32496368 4.97463327 5.01879998 8 6 C5.39417629 6.93065133 4.35801776 7.14917407 1.75 6.0625 C1.1725 5.711875 0.595 5.36125 0 5 C0 3.35 0 1.7 0 0 Z " fill="#C1A987" transform="translate(182,276)"/>
<path d="M0 0 C0.33 0.66 0.66 1.32 1 2 C1.66 2 2.32 2 3 2 C4.625 4 4.625 4 6 6 C4.02 6 2.04 6 0 6 C0 4.02 0 2.04 0 0 Z " fill="#B4976E" transform="translate(279,184)"/>
<path d="M0 0 C1.04449911 3.13349732 0.93423645 3.98968256 0 7 C-1.65 7 -3.3 7 -5 7 C-3.35 4.69 -1.7 2.38 0 0 Z " fill="#AB8B5D" transform="translate(207,229)"/>
<path d="M0 0 C1.04449911 3.13349732 0.93423645 3.98968256 0 7 C-1.65 7 -3.3 7 -5 7 C-3.35 4.69 -1.7 2.38 0 0 Z " fill="#AB8B5D" transform="translate(184,183)"/>
<path d="M0 0 C0.33 1.32 0.66 2.64 1 4 C1.66 4 2.32 4 3 4 C3.33 5.65 3.66 7.3 4 9 C3.01 9 2.02 9 1 9 C0.67 6.03 0.34 3.06 0 0 Z " fill="#B09266" transform="translate(193,129)"/>
</svg>
